%TF.GenerationSoftware,KiCad,Pcbnew,8.0.0*%
%TF.CreationDate,2024-03-28T11:04:24-03:00*%
%TF.ProjectId,PonderadaSemana6,506f6e64-6572-4616-9461-53656d616e61,rev?*%
%TF.SameCoordinates,Original*%
%TF.FileFunction,Soldermask,Bot*%
%TF.FilePolarity,Negative*%
%FSLAX46Y46*%
G04 Gerber Fmt 4.6, Leading zero omitted, Abs format (unit mm)*
G04 Created by KiCad (PCBNEW 8.0.0) date 2024-03-28 11:04:24*
%MOMM*%
%LPD*%
G01*
G04 APERTURE LIST*
%ADD10O,1.800000X1.800000*%
%ADD11O,1.500000X1.500000*%
%ADD12O,1.700000X1.700000*%
%ADD13R,1.700000X1.700000*%
%ADD14C,1.600000*%
%ADD15R,1.500000X1.050000*%
%ADD16O,1.500000X1.050000*%
%ADD17R,3.000000X3.000000*%
%ADD18C,3.000000*%
G04 APERTURE END LIST*
D10*
%TO.C,U2*%
X122385000Y-73870000D03*
D11*
X122685000Y-76900000D03*
X127535000Y-76900000D03*
D10*
X127835000Y-73870000D03*
D12*
X116220000Y-73740000D03*
X116220000Y-76280000D03*
D13*
X116220000Y-78820000D03*
D12*
X116220000Y-81360000D03*
X116220000Y-83900000D03*
X116220000Y-86440000D03*
X116220000Y-88980000D03*
D13*
X116220000Y-91520000D03*
D12*
X116220000Y-94060000D03*
X116220000Y-96600000D03*
X116220000Y-99140000D03*
X116220000Y-101680000D03*
D13*
X116220000Y-104220000D03*
D12*
X116220000Y-106760000D03*
X116220000Y-109300000D03*
X116220000Y-111840000D03*
X116220000Y-114380000D03*
D13*
X116220000Y-116920000D03*
D12*
X116220000Y-119460000D03*
X116220000Y-122000000D03*
X134000000Y-122000000D03*
X134000000Y-119460000D03*
D13*
X134000000Y-116920000D03*
D12*
X134000000Y-114380000D03*
X134000000Y-111840000D03*
X134000000Y-109300000D03*
X134000000Y-106760000D03*
D13*
X134000000Y-104220000D03*
D12*
X134000000Y-101680000D03*
X134000000Y-99140000D03*
X134000000Y-96600000D03*
X134000000Y-94060000D03*
D13*
X134000000Y-91520000D03*
D12*
X134000000Y-88980000D03*
X134000000Y-86440000D03*
X134000000Y-83900000D03*
X134000000Y-81360000D03*
D13*
X134000000Y-78820000D03*
D12*
X134000000Y-76280000D03*
X134000000Y-73740000D03*
X122570000Y-121770000D03*
D13*
X125110000Y-121770000D03*
D12*
X127650000Y-121770000D03*
%TD*%
D14*
%TO.C,R7*%
X145500000Y-104000000D03*
X145500000Y-101000000D03*
%TD*%
%TO.C,R5*%
X151500000Y-91500000D03*
X154500000Y-91500000D03*
%TD*%
D15*
%TO.C,Q2*%
X145360000Y-95270000D03*
D16*
X145360000Y-94000000D03*
X145360000Y-92730000D03*
%TD*%
D17*
%TO.C,J1*%
X151092500Y-76750000D03*
D18*
X154972500Y-76750000D03*
%TD*%
M02*
