%TF.GenerationSoftware,KiCad,Pcbnew,8.0.0*%
%TF.CreationDate,2024-03-28T11:04:24-03:00*%
%TF.ProjectId,PonderadaSemana6,506f6e64-6572-4616-9461-53656d616e61,rev?*%
%TF.SameCoordinates,Original*%
%TF.FileFunction,Soldermask,Top*%
%TF.FilePolarity,Negative*%
%FSLAX46Y46*%
G04 Gerber Fmt 4.6, Leading zero omitted, Abs format (unit mm)*
G04 Created by KiCad (PCBNEW 8.0.0) date 2024-03-28 11:04:24*
%MOMM*%
%LPD*%
G01*
G04 APERTURE LIST*
G04 Aperture macros list*
%AMRoundRect*
0 Rectangle with rounded corners*
0 $1 Rounding radius*
0 $2 $3 $4 $5 $6 $7 $8 $9 X,Y pos of 4 corners*
0 Add a 4 corners polygon primitive as box body*
4,1,4,$2,$3,$4,$5,$6,$7,$8,$9,$2,$3,0*
0 Add four circle primitives for the rounded corners*
1,1,$1+$1,$2,$3*
1,1,$1+$1,$4,$5*
1,1,$1+$1,$6,$7*
1,1,$1+$1,$8,$9*
0 Add four rect primitives between the rounded corners*
20,1,$1+$1,$2,$3,$4,$5,0*
20,1,$1+$1,$4,$5,$6,$7,0*
20,1,$1+$1,$6,$7,$8,$9,0*
20,1,$1+$1,$8,$9,$2,$3,0*%
G04 Aperture macros list end*
%ADD10RoundRect,0.100000X0.130000X0.100000X-0.130000X0.100000X-0.130000X-0.100000X0.130000X-0.100000X0*%
%ADD11O,1.800000X1.800000*%
%ADD12O,1.500000X1.500000*%
%ADD13O,1.700000X1.700000*%
%ADD14R,3.500000X1.700000*%
%ADD15R,1.700000X1.700000*%
%ADD16R,1.700000X3.500000*%
%ADD17C,1.600000*%
%ADD18R,1.500000X1.050000*%
%ADD19O,1.500000X1.050000*%
%ADD20R,3.000000X3.000000*%
%ADD21C,3.000000*%
G04 APERTURE END LIST*
D10*
%TO.C,D2*%
X157975000Y-99500000D03*
X157335000Y-99500000D03*
%TD*%
D11*
%TO.C,U2*%
X122385000Y-73870000D03*
D12*
X122685000Y-76900000D03*
X127535000Y-76900000D03*
D11*
X127835000Y-73870000D03*
D13*
X116220000Y-73740000D03*
D14*
X115320000Y-73740000D03*
D13*
X116220000Y-76280000D03*
D14*
X115320000Y-76280000D03*
D15*
X116220000Y-78820000D03*
D14*
X115320000Y-78820000D03*
D13*
X116220000Y-81360000D03*
D14*
X115320000Y-81360000D03*
D13*
X116220000Y-83900000D03*
D14*
X115320000Y-83900000D03*
D13*
X116220000Y-86440000D03*
D14*
X115320000Y-86440000D03*
D13*
X116220000Y-88980000D03*
D14*
X115320000Y-88980000D03*
D15*
X116220000Y-91520000D03*
D14*
X115320000Y-91520000D03*
D13*
X116220000Y-94060000D03*
D14*
X115320000Y-94060000D03*
D13*
X116220000Y-96600000D03*
D14*
X115320000Y-96600000D03*
D13*
X116220000Y-99140000D03*
D14*
X115320000Y-99140000D03*
D13*
X116220000Y-101680000D03*
D14*
X115320000Y-101680000D03*
D15*
X116220000Y-104220000D03*
D14*
X115320000Y-104220000D03*
D13*
X116220000Y-106760000D03*
D14*
X115320000Y-106760000D03*
D13*
X116220000Y-109300000D03*
D14*
X115320000Y-109300000D03*
D13*
X116220000Y-111840000D03*
D14*
X115320000Y-111840000D03*
D13*
X116220000Y-114380000D03*
D14*
X115320000Y-114380000D03*
D15*
X116220000Y-116920000D03*
D14*
X115320000Y-116920000D03*
D13*
X116220000Y-119460000D03*
D14*
X115320000Y-119460000D03*
D13*
X116220000Y-122000000D03*
D14*
X115320000Y-122000000D03*
D13*
X134000000Y-122000000D03*
D14*
X134900000Y-122000000D03*
D13*
X134000000Y-119460000D03*
D14*
X134900000Y-119460000D03*
D15*
X134000000Y-116920000D03*
D14*
X134900000Y-116920000D03*
D13*
X134000000Y-114380000D03*
D14*
X134900000Y-114380000D03*
D13*
X134000000Y-111840000D03*
D14*
X134900000Y-111840000D03*
D13*
X134000000Y-109300000D03*
D14*
X134900000Y-109300000D03*
D13*
X134000000Y-106760000D03*
D14*
X134900000Y-106760000D03*
D15*
X134000000Y-104220000D03*
D14*
X134900000Y-104220000D03*
D13*
X134000000Y-101680000D03*
D14*
X134900000Y-101680000D03*
D13*
X134000000Y-99140000D03*
D14*
X134900000Y-99140000D03*
D13*
X134000000Y-96600000D03*
D14*
X134900000Y-96600000D03*
D13*
X134000000Y-94060000D03*
D14*
X134900000Y-94060000D03*
D15*
X134000000Y-91520000D03*
D14*
X134900000Y-91520000D03*
D13*
X134000000Y-88980000D03*
D14*
X134900000Y-88980000D03*
D13*
X134000000Y-86440000D03*
D14*
X134900000Y-86440000D03*
D13*
X134000000Y-83900000D03*
D14*
X134900000Y-83900000D03*
D13*
X134000000Y-81360000D03*
D14*
X134900000Y-81360000D03*
D15*
X134000000Y-78820000D03*
D14*
X134900000Y-78820000D03*
D13*
X134000000Y-76280000D03*
D14*
X134900000Y-76280000D03*
D13*
X134000000Y-73740000D03*
D14*
X134900000Y-73740000D03*
D13*
X122570000Y-121770000D03*
D16*
X122570000Y-122670000D03*
D15*
X125110000Y-121770000D03*
D16*
X125110000Y-122670000D03*
D13*
X127650000Y-121770000D03*
D16*
X127650000Y-122670000D03*
%TD*%
D17*
%TO.C,R7*%
X145500000Y-104000000D03*
X145500000Y-101000000D03*
%TD*%
%TO.C,R5*%
X151500000Y-91500000D03*
X154500000Y-91500000D03*
%TD*%
D18*
%TO.C,Q2*%
X145360000Y-95270000D03*
D19*
X145360000Y-94000000D03*
X145360000Y-92730000D03*
%TD*%
D20*
%TO.C,J1*%
X151092500Y-76750000D03*
D21*
X154972500Y-76750000D03*
%TD*%
M02*
