%TF.GenerationSoftware,KiCad,Pcbnew,8.0.0*%
%TF.CreationDate,2024-03-28T11:04:24-03:00*%
%TF.ProjectId,PonderadaSemana6,506f6e64-6572-4616-9461-53656d616e61,rev?*%
%TF.SameCoordinates,Original*%
%TF.FileFunction,Legend,Top*%
%TF.FilePolarity,Positive*%
%FSLAX46Y46*%
G04 Gerber Fmt 4.6, Leading zero omitted, Abs format (unit mm)*
G04 Created by KiCad (PCBNEW 8.0.0) date 2024-03-28 11:04:24*
%MOMM*%
%LPD*%
G01*
G04 APERTURE LIST*
%ADD10C,0.150000*%
%ADD11C,0.100000*%
%ADD12C,0.120000*%
G04 APERTURE END LIST*
D10*
X156916905Y-102454819D02*
X156916905Y-101454819D01*
X156916905Y-101454819D02*
X157155000Y-101454819D01*
X157155000Y-101454819D02*
X157297857Y-101502438D01*
X157297857Y-101502438D02*
X157393095Y-101597676D01*
X157393095Y-101597676D02*
X157440714Y-101692914D01*
X157440714Y-101692914D02*
X157488333Y-101883390D01*
X157488333Y-101883390D02*
X157488333Y-102026247D01*
X157488333Y-102026247D02*
X157440714Y-102216723D01*
X157440714Y-102216723D02*
X157393095Y-102311961D01*
X157393095Y-102311961D02*
X157297857Y-102407200D01*
X157297857Y-102407200D02*
X157155000Y-102454819D01*
X157155000Y-102454819D02*
X156916905Y-102454819D01*
X157869286Y-101550057D02*
X157916905Y-101502438D01*
X157916905Y-101502438D02*
X158012143Y-101454819D01*
X158012143Y-101454819D02*
X158250238Y-101454819D01*
X158250238Y-101454819D02*
X158345476Y-101502438D01*
X158345476Y-101502438D02*
X158393095Y-101550057D01*
X158393095Y-101550057D02*
X158440714Y-101645295D01*
X158440714Y-101645295D02*
X158440714Y-101740533D01*
X158440714Y-101740533D02*
X158393095Y-101883390D01*
X158393095Y-101883390D02*
X157821667Y-102454819D01*
X157821667Y-102454819D02*
X158440714Y-102454819D01*
X124348095Y-97324819D02*
X124348095Y-98134342D01*
X124348095Y-98134342D02*
X124395714Y-98229580D01*
X124395714Y-98229580D02*
X124443333Y-98277200D01*
X124443333Y-98277200D02*
X124538571Y-98324819D01*
X124538571Y-98324819D02*
X124729047Y-98324819D01*
X124729047Y-98324819D02*
X124824285Y-98277200D01*
X124824285Y-98277200D02*
X124871904Y-98229580D01*
X124871904Y-98229580D02*
X124919523Y-98134342D01*
X124919523Y-98134342D02*
X124919523Y-97324819D01*
X125348095Y-97420057D02*
X125395714Y-97372438D01*
X125395714Y-97372438D02*
X125490952Y-97324819D01*
X125490952Y-97324819D02*
X125729047Y-97324819D01*
X125729047Y-97324819D02*
X125824285Y-97372438D01*
X125824285Y-97372438D02*
X125871904Y-97420057D01*
X125871904Y-97420057D02*
X125919523Y-97515295D01*
X125919523Y-97515295D02*
X125919523Y-97610533D01*
X125919523Y-97610533D02*
X125871904Y-97753390D01*
X125871904Y-97753390D02*
X125300476Y-98324819D01*
X125300476Y-98324819D02*
X125919523Y-98324819D01*
X110953998Y-109690868D02*
X110873185Y-109717805D01*
X110873185Y-109717805D02*
X110792373Y-109798618D01*
X110792373Y-109798618D02*
X110738498Y-109906367D01*
X110738498Y-109906367D02*
X110738498Y-110014117D01*
X110738498Y-110014117D02*
X110765436Y-110094929D01*
X110765436Y-110094929D02*
X110846248Y-110229616D01*
X110846248Y-110229616D02*
X110927060Y-110310428D01*
X110927060Y-110310428D02*
X111061747Y-110391241D01*
X111061747Y-110391241D02*
X111142560Y-110418178D01*
X111142560Y-110418178D02*
X111250309Y-110418178D01*
X111250309Y-110418178D02*
X111358059Y-110364303D01*
X111358059Y-110364303D02*
X111411934Y-110310428D01*
X111411934Y-110310428D02*
X111465808Y-110202679D01*
X111465808Y-110202679D02*
X111465808Y-110148804D01*
X111465808Y-110148804D02*
X111277247Y-109960242D01*
X111277247Y-109960242D02*
X111169497Y-110067992D01*
X111762120Y-109960242D02*
X111196434Y-109394557D01*
X111196434Y-109394557D02*
X111411934Y-109179057D01*
X111411934Y-109179057D02*
X111492746Y-109152120D01*
X111492746Y-109152120D02*
X111546621Y-109152120D01*
X111546621Y-109152120D02*
X111627433Y-109179057D01*
X111627433Y-109179057D02*
X111708245Y-109259870D01*
X111708245Y-109259870D02*
X111735182Y-109340682D01*
X111735182Y-109340682D02*
X111735182Y-109394557D01*
X111735182Y-109394557D02*
X111708245Y-109475369D01*
X111708245Y-109475369D02*
X111492746Y-109690868D01*
X112624117Y-109098245D02*
X112300868Y-109421494D01*
X112462492Y-109259870D02*
X111896807Y-108694184D01*
X111896807Y-108694184D02*
X111923744Y-108828871D01*
X111923744Y-108828871D02*
X111923744Y-108936621D01*
X111923744Y-108936621D02*
X111896807Y-109017433D01*
X113162865Y-108559497D02*
X112839616Y-108882746D01*
X113001240Y-108721121D02*
X112435555Y-108155436D01*
X112435555Y-108155436D02*
X112462492Y-108290123D01*
X112462492Y-108290123D02*
X112462492Y-108397873D01*
X112462492Y-108397873D02*
X112435555Y-108478685D01*
X137261873Y-92611240D02*
X137531247Y-92341866D01*
X137369623Y-92826739D02*
X136992499Y-92072492D01*
X136992499Y-92072492D02*
X137746746Y-92449615D01*
X137692871Y-91425994D02*
X137612059Y-91452932D01*
X137612059Y-91452932D02*
X137531247Y-91533744D01*
X137531247Y-91533744D02*
X137477372Y-91641494D01*
X137477372Y-91641494D02*
X137477372Y-91749243D01*
X137477372Y-91749243D02*
X137504310Y-91830055D01*
X137504310Y-91830055D02*
X137585122Y-91964742D01*
X137585122Y-91964742D02*
X137665934Y-92045555D01*
X137665934Y-92045555D02*
X137800621Y-92126367D01*
X137800621Y-92126367D02*
X137881433Y-92153304D01*
X137881433Y-92153304D02*
X137989183Y-92153304D01*
X137989183Y-92153304D02*
X138096932Y-92099429D01*
X138096932Y-92099429D02*
X138150807Y-92045555D01*
X138150807Y-92045555D02*
X138204682Y-91937805D01*
X138204682Y-91937805D02*
X138204682Y-91883930D01*
X138204682Y-91883930D02*
X138016120Y-91695368D01*
X138016120Y-91695368D02*
X137908371Y-91803118D01*
X138500993Y-91695368D02*
X137935308Y-91129683D01*
X137935308Y-91129683D02*
X138824242Y-91372120D01*
X138824242Y-91372120D02*
X138258557Y-90806434D01*
X139093616Y-91102746D02*
X138527931Y-90537060D01*
X138527931Y-90537060D02*
X138662618Y-90402373D01*
X138662618Y-90402373D02*
X138770367Y-90348498D01*
X138770367Y-90348498D02*
X138878117Y-90348498D01*
X138878117Y-90348498D02*
X138958929Y-90375436D01*
X138958929Y-90375436D02*
X139093616Y-90456248D01*
X139093616Y-90456248D02*
X139174428Y-90537060D01*
X139174428Y-90537060D02*
X139255241Y-90671747D01*
X139255241Y-90671747D02*
X139282178Y-90752560D01*
X139282178Y-90752560D02*
X139282178Y-90860309D01*
X139282178Y-90860309D02*
X139228303Y-90968059D01*
X139228303Y-90968059D02*
X139093616Y-91102746D01*
X137196435Y-117068431D02*
X137115623Y-117095368D01*
X137115623Y-117095368D02*
X137034811Y-117176180D01*
X137034811Y-117176180D02*
X136980936Y-117283930D01*
X136980936Y-117283930D02*
X136980936Y-117391680D01*
X136980936Y-117391680D02*
X137007873Y-117472492D01*
X137007873Y-117472492D02*
X137088685Y-117607179D01*
X137088685Y-117607179D02*
X137169498Y-117687991D01*
X137169498Y-117687991D02*
X137304185Y-117768803D01*
X137304185Y-117768803D02*
X137384997Y-117795741D01*
X137384997Y-117795741D02*
X137492746Y-117795741D01*
X137492746Y-117795741D02*
X137600496Y-117741866D01*
X137600496Y-117741866D02*
X137654371Y-117687991D01*
X137654371Y-117687991D02*
X137708246Y-117580241D01*
X137708246Y-117580241D02*
X137708246Y-117526367D01*
X137708246Y-117526367D02*
X137519684Y-117337805D01*
X137519684Y-117337805D02*
X137411934Y-117445554D01*
X138004557Y-117337805D02*
X137438872Y-116772119D01*
X137438872Y-116772119D02*
X138327806Y-117014556D01*
X138327806Y-117014556D02*
X137762120Y-116448871D01*
X138597180Y-116745182D02*
X138031494Y-116179497D01*
X138031494Y-116179497D02*
X138166181Y-116044810D01*
X138166181Y-116044810D02*
X138273931Y-115990935D01*
X138273931Y-115990935D02*
X138381680Y-115990935D01*
X138381680Y-115990935D02*
X138462493Y-116017872D01*
X138462493Y-116017872D02*
X138597180Y-116098685D01*
X138597180Y-116098685D02*
X138677992Y-116179497D01*
X138677992Y-116179497D02*
X138758804Y-116314184D01*
X138758804Y-116314184D02*
X138785741Y-116394996D01*
X138785741Y-116394996D02*
X138785741Y-116502746D01*
X138785741Y-116502746D02*
X138731867Y-116610495D01*
X138731867Y-116610495D02*
X138597180Y-116745182D01*
X137063406Y-74397585D02*
X137817653Y-74774709D01*
X137817653Y-74774709D02*
X137440529Y-74020462D01*
X138087027Y-73912712D02*
X138194776Y-73858838D01*
X138194776Y-73858838D02*
X138248651Y-73858838D01*
X138248651Y-73858838D02*
X138329463Y-73885775D01*
X138329463Y-73885775D02*
X138410276Y-73966587D01*
X138410276Y-73966587D02*
X138437213Y-74047399D01*
X138437213Y-74047399D02*
X138437213Y-74101274D01*
X138437213Y-74101274D02*
X138410276Y-74182086D01*
X138410276Y-74182086D02*
X138194776Y-74397586D01*
X138194776Y-74397586D02*
X137629091Y-73831900D01*
X137629091Y-73831900D02*
X137817653Y-73643338D01*
X137817653Y-73643338D02*
X137898465Y-73616401D01*
X137898465Y-73616401D02*
X137952340Y-73616401D01*
X137952340Y-73616401D02*
X138033152Y-73643338D01*
X138033152Y-73643338D02*
X138087027Y-73697213D01*
X138087027Y-73697213D02*
X138113964Y-73778025D01*
X138113964Y-73778025D02*
X138113964Y-73831900D01*
X138113964Y-73831900D02*
X138087027Y-73912712D01*
X138087027Y-73912712D02*
X137898465Y-74101274D01*
X138194776Y-73266215D02*
X138652712Y-73724151D01*
X138652712Y-73724151D02*
X138733524Y-73751088D01*
X138733524Y-73751088D02*
X138787399Y-73751088D01*
X138787399Y-73751088D02*
X138868211Y-73724151D01*
X138868211Y-73724151D02*
X138975961Y-73616401D01*
X138975961Y-73616401D02*
X139002898Y-73535589D01*
X139002898Y-73535589D02*
X139002898Y-73481714D01*
X139002898Y-73481714D02*
X138975961Y-73400902D01*
X138975961Y-73400902D02*
X138518025Y-72942966D01*
X139299210Y-73239277D02*
X139406959Y-73185403D01*
X139406959Y-73185403D02*
X139541646Y-73050716D01*
X139541646Y-73050716D02*
X139568584Y-72969903D01*
X139568584Y-72969903D02*
X139568584Y-72916029D01*
X139568584Y-72916029D02*
X139541646Y-72835216D01*
X139541646Y-72835216D02*
X139487771Y-72781342D01*
X139487771Y-72781342D02*
X139406959Y-72754404D01*
X139406959Y-72754404D02*
X139353084Y-72754404D01*
X139353084Y-72754404D02*
X139272272Y-72781342D01*
X139272272Y-72781342D02*
X139137585Y-72862154D01*
X139137585Y-72862154D02*
X139056773Y-72889091D01*
X139056773Y-72889091D02*
X139002898Y-72889091D01*
X139002898Y-72889091D02*
X138922086Y-72862154D01*
X138922086Y-72862154D02*
X138868211Y-72808279D01*
X138868211Y-72808279D02*
X138841274Y-72727467D01*
X138841274Y-72727467D02*
X138841274Y-72673592D01*
X138841274Y-72673592D02*
X138868211Y-72592780D01*
X138868211Y-72592780D02*
X139002898Y-72458093D01*
X139002898Y-72458093D02*
X139110648Y-72404218D01*
X137196435Y-78968431D02*
X137115623Y-78995368D01*
X137115623Y-78995368D02*
X137034811Y-79076180D01*
X137034811Y-79076180D02*
X136980936Y-79183930D01*
X136980936Y-79183930D02*
X136980936Y-79291680D01*
X136980936Y-79291680D02*
X137007873Y-79372492D01*
X137007873Y-79372492D02*
X137088685Y-79507179D01*
X137088685Y-79507179D02*
X137169498Y-79587991D01*
X137169498Y-79587991D02*
X137304185Y-79668803D01*
X137304185Y-79668803D02*
X137384997Y-79695741D01*
X137384997Y-79695741D02*
X137492746Y-79695741D01*
X137492746Y-79695741D02*
X137600496Y-79641866D01*
X137600496Y-79641866D02*
X137654371Y-79587991D01*
X137654371Y-79587991D02*
X137708246Y-79480241D01*
X137708246Y-79480241D02*
X137708246Y-79426367D01*
X137708246Y-79426367D02*
X137519684Y-79237805D01*
X137519684Y-79237805D02*
X137411934Y-79345554D01*
X138004557Y-79237805D02*
X137438872Y-78672119D01*
X137438872Y-78672119D02*
X138327806Y-78914556D01*
X138327806Y-78914556D02*
X137762120Y-78348871D01*
X138597180Y-78645182D02*
X138031494Y-78079497D01*
X138031494Y-78079497D02*
X138166181Y-77944810D01*
X138166181Y-77944810D02*
X138273931Y-77890935D01*
X138273931Y-77890935D02*
X138381680Y-77890935D01*
X138381680Y-77890935D02*
X138462493Y-77917872D01*
X138462493Y-77917872D02*
X138597180Y-77998685D01*
X138597180Y-77998685D02*
X138677992Y-78079497D01*
X138677992Y-78079497D02*
X138758804Y-78214184D01*
X138758804Y-78214184D02*
X138785741Y-78294996D01*
X138785741Y-78294996D02*
X138785741Y-78402746D01*
X138785741Y-78402746D02*
X138731867Y-78510495D01*
X138731867Y-78510495D02*
X138597180Y-78645182D01*
X111099998Y-114770868D02*
X111019185Y-114797805D01*
X111019185Y-114797805D02*
X110938373Y-114878618D01*
X110938373Y-114878618D02*
X110884498Y-114986367D01*
X110884498Y-114986367D02*
X110884498Y-115094117D01*
X110884498Y-115094117D02*
X110911436Y-115174929D01*
X110911436Y-115174929D02*
X110992248Y-115309616D01*
X110992248Y-115309616D02*
X111073060Y-115390428D01*
X111073060Y-115390428D02*
X111207747Y-115471241D01*
X111207747Y-115471241D02*
X111288560Y-115498178D01*
X111288560Y-115498178D02*
X111396309Y-115498178D01*
X111396309Y-115498178D02*
X111504059Y-115444303D01*
X111504059Y-115444303D02*
X111557934Y-115390428D01*
X111557934Y-115390428D02*
X111611808Y-115282679D01*
X111611808Y-115282679D02*
X111611808Y-115228804D01*
X111611808Y-115228804D02*
X111423247Y-115040242D01*
X111423247Y-115040242D02*
X111315497Y-115147992D01*
X111908120Y-115040242D02*
X111342434Y-114474557D01*
X111342434Y-114474557D02*
X111557934Y-114259057D01*
X111557934Y-114259057D02*
X111638746Y-114232120D01*
X111638746Y-114232120D02*
X111692621Y-114232120D01*
X111692621Y-114232120D02*
X111773433Y-114259057D01*
X111773433Y-114259057D02*
X111854245Y-114339870D01*
X111854245Y-114339870D02*
X111881182Y-114420682D01*
X111881182Y-114420682D02*
X111881182Y-114474557D01*
X111881182Y-114474557D02*
X111854245Y-114555369D01*
X111854245Y-114555369D02*
X111638746Y-114770868D01*
X112770117Y-114178245D02*
X112446868Y-114501494D01*
X112608492Y-114339870D02*
X112042807Y-113774184D01*
X112042807Y-113774184D02*
X112069744Y-113908871D01*
X112069744Y-113908871D02*
X112069744Y-114016621D01*
X112069744Y-114016621D02*
X112042807Y-114097433D01*
X112392993Y-113423998D02*
X112743179Y-113073812D01*
X112743179Y-113073812D02*
X112770117Y-113477873D01*
X112770117Y-113477873D02*
X112850929Y-113397060D01*
X112850929Y-113397060D02*
X112931741Y-113370123D01*
X112931741Y-113370123D02*
X112985616Y-113370123D01*
X112985616Y-113370123D02*
X113066428Y-113397060D01*
X113066428Y-113397060D02*
X113201115Y-113531747D01*
X113201115Y-113531747D02*
X113228053Y-113612560D01*
X113228053Y-113612560D02*
X113228053Y-113666434D01*
X113228053Y-113666434D02*
X113201115Y-113747247D01*
X113201115Y-113747247D02*
X113039491Y-113908871D01*
X113039491Y-113908871D02*
X112958679Y-113935808D01*
X112958679Y-113935808D02*
X112904804Y-113935808D01*
X137265064Y-87404049D02*
X137534438Y-87134675D01*
X137372813Y-87619549D02*
X136995690Y-86865301D01*
X136995690Y-86865301D02*
X137749937Y-87242425D01*
X137938499Y-87053863D02*
X137372813Y-86488178D01*
X137372813Y-86488178D02*
X137507500Y-86353491D01*
X137507500Y-86353491D02*
X137615250Y-86299616D01*
X137615250Y-86299616D02*
X137722999Y-86299616D01*
X137722999Y-86299616D02*
X137803812Y-86326553D01*
X137803812Y-86326553D02*
X137938499Y-86407366D01*
X137938499Y-86407366D02*
X138019311Y-86488178D01*
X138019311Y-86488178D02*
X138100123Y-86622865D01*
X138100123Y-86622865D02*
X138127060Y-86703677D01*
X138127060Y-86703677D02*
X138127060Y-86811427D01*
X138127060Y-86811427D02*
X138073186Y-86919176D01*
X138073186Y-86919176D02*
X137938499Y-87053863D01*
X138773558Y-86111054D02*
X138773558Y-86164929D01*
X138773558Y-86164929D02*
X138719683Y-86272679D01*
X138719683Y-86272679D02*
X138665808Y-86326553D01*
X138665808Y-86326553D02*
X138558059Y-86380428D01*
X138558059Y-86380428D02*
X138450309Y-86380428D01*
X138450309Y-86380428D02*
X138369497Y-86353491D01*
X138369497Y-86353491D02*
X138234810Y-86272679D01*
X138234810Y-86272679D02*
X138153998Y-86191866D01*
X138153998Y-86191866D02*
X138073186Y-86057179D01*
X138073186Y-86057179D02*
X138046248Y-85976367D01*
X138046248Y-85976367D02*
X138046248Y-85868618D01*
X138046248Y-85868618D02*
X138100123Y-85760868D01*
X138100123Y-85760868D02*
X138153998Y-85706993D01*
X138153998Y-85706993D02*
X138261747Y-85653118D01*
X138261747Y-85653118D02*
X138315622Y-85653118D01*
X138989057Y-86111054D02*
X139420056Y-85680056D01*
X138854370Y-85006621D02*
X139608618Y-85383744D01*
X139608618Y-85383744D02*
X139231494Y-84629497D01*
X140308990Y-84683372D02*
X139851054Y-84602560D01*
X139985741Y-85006621D02*
X139420056Y-84440935D01*
X139420056Y-84440935D02*
X139635555Y-84225436D01*
X139635555Y-84225436D02*
X139716367Y-84198499D01*
X139716367Y-84198499D02*
X139770242Y-84198499D01*
X139770242Y-84198499D02*
X139851054Y-84225436D01*
X139851054Y-84225436D02*
X139931866Y-84306248D01*
X139931866Y-84306248D02*
X139958804Y-84387061D01*
X139958804Y-84387061D02*
X139958804Y-84440935D01*
X139958804Y-84440935D02*
X139931866Y-84521748D01*
X139931866Y-84521748D02*
X139716367Y-84737247D01*
X140255115Y-84144624D02*
X140443677Y-83956062D01*
X140820800Y-84171561D02*
X140551426Y-84440935D01*
X140551426Y-84440935D02*
X139985741Y-83875250D01*
X139985741Y-83875250D02*
X140255115Y-83605876D01*
X140955488Y-83444251D02*
X140766926Y-83632813D01*
X141063237Y-83929125D02*
X140497552Y-83363439D01*
X140497552Y-83363439D02*
X140766926Y-83094065D01*
X111623372Y-86561494D02*
X111542560Y-86588431D01*
X111542560Y-86588431D02*
X111461748Y-86669243D01*
X111461748Y-86669243D02*
X111407873Y-86776993D01*
X111407873Y-86776993D02*
X111407873Y-86884742D01*
X111407873Y-86884742D02*
X111434810Y-86965555D01*
X111434810Y-86965555D02*
X111515623Y-87100242D01*
X111515623Y-87100242D02*
X111596435Y-87181054D01*
X111596435Y-87181054D02*
X111731122Y-87261866D01*
X111731122Y-87261866D02*
X111811934Y-87288803D01*
X111811934Y-87288803D02*
X111919684Y-87288803D01*
X111919684Y-87288803D02*
X112027433Y-87234929D01*
X112027433Y-87234929D02*
X112081308Y-87181054D01*
X112081308Y-87181054D02*
X112135183Y-87073304D01*
X112135183Y-87073304D02*
X112135183Y-87019429D01*
X112135183Y-87019429D02*
X111946621Y-86830868D01*
X111946621Y-86830868D02*
X111838871Y-86938617D01*
X112431494Y-86830868D02*
X111865809Y-86265182D01*
X111865809Y-86265182D02*
X112081308Y-86049683D01*
X112081308Y-86049683D02*
X112162120Y-86022746D01*
X112162120Y-86022746D02*
X112215995Y-86022746D01*
X112215995Y-86022746D02*
X112296807Y-86049683D01*
X112296807Y-86049683D02*
X112377619Y-86130495D01*
X112377619Y-86130495D02*
X112404557Y-86211307D01*
X112404557Y-86211307D02*
X112404557Y-86265182D01*
X112404557Y-86265182D02*
X112377619Y-86345994D01*
X112377619Y-86345994D02*
X112162120Y-86561494D01*
X112862493Y-85645622D02*
X113239616Y-86022746D01*
X112512306Y-85564810D02*
X112781680Y-86103558D01*
X112781680Y-86103558D02*
X113131867Y-85753372D01*
X111723372Y-96691494D02*
X111642560Y-96718431D01*
X111642560Y-96718431D02*
X111561748Y-96799243D01*
X111561748Y-96799243D02*
X111507873Y-96906993D01*
X111507873Y-96906993D02*
X111507873Y-97014742D01*
X111507873Y-97014742D02*
X111534810Y-97095555D01*
X111534810Y-97095555D02*
X111615623Y-97230242D01*
X111615623Y-97230242D02*
X111696435Y-97311054D01*
X111696435Y-97311054D02*
X111831122Y-97391866D01*
X111831122Y-97391866D02*
X111911934Y-97418803D01*
X111911934Y-97418803D02*
X112019684Y-97418803D01*
X112019684Y-97418803D02*
X112127433Y-97364929D01*
X112127433Y-97364929D02*
X112181308Y-97311054D01*
X112181308Y-97311054D02*
X112235183Y-97203304D01*
X112235183Y-97203304D02*
X112235183Y-97149429D01*
X112235183Y-97149429D02*
X112046621Y-96960868D01*
X112046621Y-96960868D02*
X111938871Y-97068617D01*
X112531494Y-96960868D02*
X111965809Y-96395182D01*
X111965809Y-96395182D02*
X112181308Y-96179683D01*
X112181308Y-96179683D02*
X112262120Y-96152746D01*
X112262120Y-96152746D02*
X112315995Y-96152746D01*
X112315995Y-96152746D02*
X112396807Y-96179683D01*
X112396807Y-96179683D02*
X112477619Y-96260495D01*
X112477619Y-96260495D02*
X112504557Y-96341307D01*
X112504557Y-96341307D02*
X112504557Y-96395182D01*
X112504557Y-96395182D02*
X112477619Y-96475994D01*
X112477619Y-96475994D02*
X112262120Y-96691494D01*
X112477619Y-95883372D02*
X112854743Y-95506248D01*
X112854743Y-95506248D02*
X113177992Y-96314370D01*
X111099998Y-122390868D02*
X111019185Y-122417805D01*
X111019185Y-122417805D02*
X110938373Y-122498618D01*
X110938373Y-122498618D02*
X110884498Y-122606367D01*
X110884498Y-122606367D02*
X110884498Y-122714117D01*
X110884498Y-122714117D02*
X110911436Y-122794929D01*
X110911436Y-122794929D02*
X110992248Y-122929616D01*
X110992248Y-122929616D02*
X111073060Y-123010428D01*
X111073060Y-123010428D02*
X111207747Y-123091241D01*
X111207747Y-123091241D02*
X111288560Y-123118178D01*
X111288560Y-123118178D02*
X111396309Y-123118178D01*
X111396309Y-123118178D02*
X111504059Y-123064303D01*
X111504059Y-123064303D02*
X111557934Y-123010428D01*
X111557934Y-123010428D02*
X111611808Y-122902679D01*
X111611808Y-122902679D02*
X111611808Y-122848804D01*
X111611808Y-122848804D02*
X111423247Y-122660242D01*
X111423247Y-122660242D02*
X111315497Y-122767992D01*
X111908120Y-122660242D02*
X111342434Y-122094557D01*
X111342434Y-122094557D02*
X111557934Y-121879057D01*
X111557934Y-121879057D02*
X111638746Y-121852120D01*
X111638746Y-121852120D02*
X111692621Y-121852120D01*
X111692621Y-121852120D02*
X111773433Y-121879057D01*
X111773433Y-121879057D02*
X111854245Y-121959870D01*
X111854245Y-121959870D02*
X111881182Y-122040682D01*
X111881182Y-122040682D02*
X111881182Y-122094557D01*
X111881182Y-122094557D02*
X111854245Y-122175369D01*
X111854245Y-122175369D02*
X111638746Y-122390868D01*
X112770117Y-121798245D02*
X112446868Y-122121494D01*
X112608492Y-121959870D02*
X112042807Y-121394184D01*
X112042807Y-121394184D02*
X112069744Y-121528871D01*
X112069744Y-121528871D02*
X112069744Y-121636621D01*
X112069744Y-121636621D02*
X112042807Y-121717433D01*
X112716242Y-120720749D02*
X112446868Y-120990123D01*
X112446868Y-120990123D02*
X112689305Y-121286434D01*
X112689305Y-121286434D02*
X112689305Y-121232560D01*
X112689305Y-121232560D02*
X112716242Y-121151747D01*
X112716242Y-121151747D02*
X112850929Y-121017060D01*
X112850929Y-121017060D02*
X112931741Y-120990123D01*
X112931741Y-120990123D02*
X112985616Y-120990123D01*
X112985616Y-120990123D02*
X113066428Y-121017060D01*
X113066428Y-121017060D02*
X113201115Y-121151747D01*
X113201115Y-121151747D02*
X113228053Y-121232560D01*
X113228053Y-121232560D02*
X113228053Y-121286434D01*
X113228053Y-121286434D02*
X113201115Y-121367247D01*
X113201115Y-121367247D02*
X113066428Y-121501934D01*
X113066428Y-121501934D02*
X112985616Y-121528871D01*
X112985616Y-121528871D02*
X112931741Y-121528871D01*
X137207998Y-119850868D02*
X137127185Y-119877805D01*
X137127185Y-119877805D02*
X137046373Y-119958618D01*
X137046373Y-119958618D02*
X136992498Y-120066367D01*
X136992498Y-120066367D02*
X136992498Y-120174117D01*
X136992498Y-120174117D02*
X137019436Y-120254929D01*
X137019436Y-120254929D02*
X137100248Y-120389616D01*
X137100248Y-120389616D02*
X137181060Y-120470428D01*
X137181060Y-120470428D02*
X137315747Y-120551241D01*
X137315747Y-120551241D02*
X137396560Y-120578178D01*
X137396560Y-120578178D02*
X137504309Y-120578178D01*
X137504309Y-120578178D02*
X137612059Y-120524303D01*
X137612059Y-120524303D02*
X137665934Y-120470428D01*
X137665934Y-120470428D02*
X137719808Y-120362679D01*
X137719808Y-120362679D02*
X137719808Y-120308804D01*
X137719808Y-120308804D02*
X137531247Y-120120242D01*
X137531247Y-120120242D02*
X137423497Y-120227992D01*
X138016120Y-120120242D02*
X137450434Y-119554557D01*
X137450434Y-119554557D02*
X137665934Y-119339057D01*
X137665934Y-119339057D02*
X137746746Y-119312120D01*
X137746746Y-119312120D02*
X137800621Y-119312120D01*
X137800621Y-119312120D02*
X137881433Y-119339057D01*
X137881433Y-119339057D02*
X137962245Y-119419870D01*
X137962245Y-119419870D02*
X137989182Y-119500682D01*
X137989182Y-119500682D02*
X137989182Y-119554557D01*
X137989182Y-119554557D02*
X137962245Y-119635369D01*
X137962245Y-119635369D02*
X137746746Y-119850868D01*
X138878117Y-119258245D02*
X138554868Y-119581494D01*
X138716492Y-119419870D02*
X138150807Y-118854184D01*
X138150807Y-118854184D02*
X138177744Y-118988871D01*
X138177744Y-118988871D02*
X138177744Y-119096621D01*
X138177744Y-119096621D02*
X138150807Y-119177433D01*
X138500993Y-118503998D02*
X138878117Y-118126874D01*
X138878117Y-118126874D02*
X139201366Y-118934996D01*
X137207998Y-96990868D02*
X137127185Y-97017805D01*
X137127185Y-97017805D02*
X137046373Y-97098618D01*
X137046373Y-97098618D02*
X136992498Y-97206367D01*
X136992498Y-97206367D02*
X136992498Y-97314117D01*
X136992498Y-97314117D02*
X137019436Y-97394929D01*
X137019436Y-97394929D02*
X137100248Y-97529616D01*
X137100248Y-97529616D02*
X137181060Y-97610428D01*
X137181060Y-97610428D02*
X137315747Y-97691241D01*
X137315747Y-97691241D02*
X137396560Y-97718178D01*
X137396560Y-97718178D02*
X137504309Y-97718178D01*
X137504309Y-97718178D02*
X137612059Y-97664303D01*
X137612059Y-97664303D02*
X137665934Y-97610428D01*
X137665934Y-97610428D02*
X137719808Y-97502679D01*
X137719808Y-97502679D02*
X137719808Y-97448804D01*
X137719808Y-97448804D02*
X137531247Y-97260242D01*
X137531247Y-97260242D02*
X137423497Y-97367992D01*
X138016120Y-97260242D02*
X137450434Y-96694557D01*
X137450434Y-96694557D02*
X137665934Y-96479057D01*
X137665934Y-96479057D02*
X137746746Y-96452120D01*
X137746746Y-96452120D02*
X137800621Y-96452120D01*
X137800621Y-96452120D02*
X137881433Y-96479057D01*
X137881433Y-96479057D02*
X137962245Y-96559870D01*
X137962245Y-96559870D02*
X137989182Y-96640682D01*
X137989182Y-96640682D02*
X137989182Y-96694557D01*
X137989182Y-96694557D02*
X137962245Y-96775369D01*
X137962245Y-96775369D02*
X137746746Y-96990868D01*
X138043057Y-96209683D02*
X138043057Y-96155809D01*
X138043057Y-96155809D02*
X138069995Y-96074996D01*
X138069995Y-96074996D02*
X138204682Y-95940309D01*
X138204682Y-95940309D02*
X138285494Y-95913372D01*
X138285494Y-95913372D02*
X138339369Y-95913372D01*
X138339369Y-95913372D02*
X138420181Y-95940309D01*
X138420181Y-95940309D02*
X138474056Y-95994184D01*
X138474056Y-95994184D02*
X138527930Y-96101934D01*
X138527930Y-96101934D02*
X138527930Y-96748431D01*
X138527930Y-96748431D02*
X138878117Y-96398245D01*
X138797305Y-95347686D02*
X138689555Y-95455436D01*
X138689555Y-95455436D02*
X138662618Y-95536248D01*
X138662618Y-95536248D02*
X138662618Y-95590123D01*
X138662618Y-95590123D02*
X138689555Y-95724810D01*
X138689555Y-95724810D02*
X138770367Y-95859497D01*
X138770367Y-95859497D02*
X138985866Y-96074996D01*
X138985866Y-96074996D02*
X139066679Y-96101934D01*
X139066679Y-96101934D02*
X139120553Y-96101934D01*
X139120553Y-96101934D02*
X139201366Y-96074996D01*
X139201366Y-96074996D02*
X139309115Y-95967247D01*
X139309115Y-95967247D02*
X139336053Y-95886434D01*
X139336053Y-95886434D02*
X139336053Y-95832560D01*
X139336053Y-95832560D02*
X139309115Y-95751747D01*
X139309115Y-95751747D02*
X139174428Y-95617060D01*
X139174428Y-95617060D02*
X139093616Y-95590123D01*
X139093616Y-95590123D02*
X139039741Y-95590123D01*
X139039741Y-95590123D02*
X138958929Y-95617060D01*
X138958929Y-95617060D02*
X138851179Y-95724810D01*
X138851179Y-95724810D02*
X138824242Y-95805622D01*
X138824242Y-95805622D02*
X138824242Y-95859497D01*
X138824242Y-95859497D02*
X138851179Y-95940309D01*
X117600475Y-124394200D02*
X117714761Y-124432295D01*
X117714761Y-124432295D02*
X117905237Y-124432295D01*
X117905237Y-124432295D02*
X117981428Y-124394200D01*
X117981428Y-124394200D02*
X118019523Y-124356104D01*
X118019523Y-124356104D02*
X118057618Y-124279914D01*
X118057618Y-124279914D02*
X118057618Y-124203723D01*
X118057618Y-124203723D02*
X118019523Y-124127533D01*
X118019523Y-124127533D02*
X117981428Y-124089438D01*
X117981428Y-124089438D02*
X117905237Y-124051342D01*
X117905237Y-124051342D02*
X117752856Y-124013247D01*
X117752856Y-124013247D02*
X117676666Y-123975152D01*
X117676666Y-123975152D02*
X117638571Y-123937057D01*
X117638571Y-123937057D02*
X117600475Y-123860866D01*
X117600475Y-123860866D02*
X117600475Y-123784676D01*
X117600475Y-123784676D02*
X117638571Y-123708485D01*
X117638571Y-123708485D02*
X117676666Y-123670390D01*
X117676666Y-123670390D02*
X117752856Y-123632295D01*
X117752856Y-123632295D02*
X117943333Y-123632295D01*
X117943333Y-123632295D02*
X118057618Y-123670390D01*
X118324285Y-123632295D02*
X118514761Y-124432295D01*
X118514761Y-124432295D02*
X118667142Y-123860866D01*
X118667142Y-123860866D02*
X118819523Y-124432295D01*
X118819523Y-124432295D02*
X119010000Y-123632295D01*
X119771905Y-124356104D02*
X119733809Y-124394200D01*
X119733809Y-124394200D02*
X119619524Y-124432295D01*
X119619524Y-124432295D02*
X119543333Y-124432295D01*
X119543333Y-124432295D02*
X119429047Y-124394200D01*
X119429047Y-124394200D02*
X119352857Y-124318009D01*
X119352857Y-124318009D02*
X119314762Y-124241819D01*
X119314762Y-124241819D02*
X119276666Y-124089438D01*
X119276666Y-124089438D02*
X119276666Y-123975152D01*
X119276666Y-123975152D02*
X119314762Y-123822771D01*
X119314762Y-123822771D02*
X119352857Y-123746580D01*
X119352857Y-123746580D02*
X119429047Y-123670390D01*
X119429047Y-123670390D02*
X119543333Y-123632295D01*
X119543333Y-123632295D02*
X119619524Y-123632295D01*
X119619524Y-123632295D02*
X119733809Y-123670390D01*
X119733809Y-123670390D02*
X119771905Y-123708485D01*
X120495714Y-124432295D02*
X120114762Y-124432295D01*
X120114762Y-124432295D02*
X120114762Y-123632295D01*
X120762381Y-124432295D02*
X120762381Y-123632295D01*
X121219524Y-124432295D02*
X120876666Y-123975152D01*
X121219524Y-123632295D02*
X120762381Y-124089438D01*
X137032407Y-81828584D02*
X137382593Y-81478398D01*
X137382593Y-81478398D02*
X137409531Y-81882459D01*
X137409531Y-81882459D02*
X137490343Y-81801646D01*
X137490343Y-81801646D02*
X137571155Y-81774709D01*
X137571155Y-81774709D02*
X137625030Y-81774709D01*
X137625030Y-81774709D02*
X137705842Y-81801646D01*
X137705842Y-81801646D02*
X137840529Y-81936333D01*
X137840529Y-81936333D02*
X137867467Y-82017146D01*
X137867467Y-82017146D02*
X137867467Y-82071020D01*
X137867467Y-82071020D02*
X137840529Y-82151833D01*
X137840529Y-82151833D02*
X137678905Y-82313457D01*
X137678905Y-82313457D02*
X137598093Y-82340394D01*
X137598093Y-82340394D02*
X137544218Y-82340394D01*
X137544218Y-81316773D02*
X138298465Y-81693897D01*
X138298465Y-81693897D02*
X137921342Y-80939649D01*
X138056028Y-80804963D02*
X138406215Y-80454776D01*
X138406215Y-80454776D02*
X138433152Y-80858837D01*
X138433152Y-80858837D02*
X138513964Y-80778025D01*
X138513964Y-80778025D02*
X138594776Y-80751088D01*
X138594776Y-80751088D02*
X138648651Y-80751088D01*
X138648651Y-80751088D02*
X138729464Y-80778025D01*
X138729464Y-80778025D02*
X138864151Y-80912712D01*
X138864151Y-80912712D02*
X138891088Y-80993524D01*
X138891088Y-80993524D02*
X138891088Y-81047399D01*
X138891088Y-81047399D02*
X138864151Y-81128211D01*
X138864151Y-81128211D02*
X138702526Y-81289836D01*
X138702526Y-81289836D02*
X138621714Y-81316773D01*
X138621714Y-81316773D02*
X138567839Y-81316773D01*
X139133525Y-80966587D02*
X139564523Y-80535588D01*
X139349024Y-80050715D02*
X139537586Y-79862153D01*
X139914709Y-80077652D02*
X139645335Y-80347026D01*
X139645335Y-80347026D02*
X139079650Y-79781341D01*
X139079650Y-79781341D02*
X139349024Y-79511967D01*
X140157146Y-79835215D02*
X139591461Y-79269530D01*
X139591461Y-79269530D02*
X140480395Y-79511967D01*
X140480395Y-79511967D02*
X139914710Y-78946281D01*
X137000123Y-84360868D02*
X137350309Y-84010682D01*
X137350309Y-84010682D02*
X137377247Y-84414743D01*
X137377247Y-84414743D02*
X137458059Y-84333931D01*
X137458059Y-84333931D02*
X137538871Y-84306993D01*
X137538871Y-84306993D02*
X137592746Y-84306993D01*
X137592746Y-84306993D02*
X137673558Y-84333931D01*
X137673558Y-84333931D02*
X137808245Y-84468618D01*
X137808245Y-84468618D02*
X137835182Y-84549430D01*
X137835182Y-84549430D02*
X137835182Y-84603305D01*
X137835182Y-84603305D02*
X137808245Y-84684117D01*
X137808245Y-84684117D02*
X137646621Y-84845741D01*
X137646621Y-84845741D02*
X137565808Y-84872679D01*
X137565808Y-84872679D02*
X137511934Y-84872679D01*
X137511934Y-83849057D02*
X138266181Y-84226181D01*
X138266181Y-84226181D02*
X137889057Y-83471934D01*
X138023744Y-83337247D02*
X138373930Y-82987061D01*
X138373930Y-82987061D02*
X138400868Y-83391122D01*
X138400868Y-83391122D02*
X138481680Y-83310309D01*
X138481680Y-83310309D02*
X138562492Y-83283372D01*
X138562492Y-83283372D02*
X138616367Y-83283372D01*
X138616367Y-83283372D02*
X138697179Y-83310309D01*
X138697179Y-83310309D02*
X138831866Y-83444996D01*
X138831866Y-83444996D02*
X138858804Y-83525809D01*
X138858804Y-83525809D02*
X138858804Y-83579683D01*
X138858804Y-83579683D02*
X138831866Y-83660496D01*
X138831866Y-83660496D02*
X138670242Y-83822120D01*
X138670242Y-83822120D02*
X138589430Y-83849057D01*
X138589430Y-83849057D02*
X138535555Y-83849057D01*
X111623372Y-99261494D02*
X111542560Y-99288431D01*
X111542560Y-99288431D02*
X111461748Y-99369243D01*
X111461748Y-99369243D02*
X111407873Y-99476993D01*
X111407873Y-99476993D02*
X111407873Y-99584742D01*
X111407873Y-99584742D02*
X111434810Y-99665555D01*
X111434810Y-99665555D02*
X111515623Y-99800242D01*
X111515623Y-99800242D02*
X111596435Y-99881054D01*
X111596435Y-99881054D02*
X111731122Y-99961866D01*
X111731122Y-99961866D02*
X111811934Y-99988803D01*
X111811934Y-99988803D02*
X111919684Y-99988803D01*
X111919684Y-99988803D02*
X112027433Y-99934929D01*
X112027433Y-99934929D02*
X112081308Y-99881054D01*
X112081308Y-99881054D02*
X112135183Y-99773304D01*
X112135183Y-99773304D02*
X112135183Y-99719429D01*
X112135183Y-99719429D02*
X111946621Y-99530868D01*
X111946621Y-99530868D02*
X111838871Y-99638617D01*
X112431494Y-99530868D02*
X111865809Y-98965182D01*
X111865809Y-98965182D02*
X112081308Y-98749683D01*
X112081308Y-98749683D02*
X112162120Y-98722746D01*
X112162120Y-98722746D02*
X112215995Y-98722746D01*
X112215995Y-98722746D02*
X112296807Y-98749683D01*
X112296807Y-98749683D02*
X112377619Y-98830495D01*
X112377619Y-98830495D02*
X112404557Y-98911307D01*
X112404557Y-98911307D02*
X112404557Y-98965182D01*
X112404557Y-98965182D02*
X112377619Y-99045994D01*
X112377619Y-99045994D02*
X112162120Y-99261494D01*
X112754743Y-98561121D02*
X112673931Y-98588059D01*
X112673931Y-98588059D02*
X112620056Y-98588059D01*
X112620056Y-98588059D02*
X112539244Y-98561121D01*
X112539244Y-98561121D02*
X112512306Y-98534184D01*
X112512306Y-98534184D02*
X112485369Y-98453372D01*
X112485369Y-98453372D02*
X112485369Y-98399497D01*
X112485369Y-98399497D02*
X112512306Y-98318685D01*
X112512306Y-98318685D02*
X112620056Y-98210935D01*
X112620056Y-98210935D02*
X112700868Y-98183998D01*
X112700868Y-98183998D02*
X112754743Y-98183998D01*
X112754743Y-98183998D02*
X112835555Y-98210935D01*
X112835555Y-98210935D02*
X112862493Y-98237872D01*
X112862493Y-98237872D02*
X112889430Y-98318685D01*
X112889430Y-98318685D02*
X112889430Y-98372559D01*
X112889430Y-98372559D02*
X112862493Y-98453372D01*
X112862493Y-98453372D02*
X112754743Y-98561121D01*
X112754743Y-98561121D02*
X112727806Y-98641933D01*
X112727806Y-98641933D02*
X112727806Y-98695808D01*
X112727806Y-98695808D02*
X112754743Y-98776620D01*
X112754743Y-98776620D02*
X112862493Y-98884370D01*
X112862493Y-98884370D02*
X112943305Y-98911307D01*
X112943305Y-98911307D02*
X112997180Y-98911307D01*
X112997180Y-98911307D02*
X113077992Y-98884370D01*
X113077992Y-98884370D02*
X113185741Y-98776620D01*
X113185741Y-98776620D02*
X113212679Y-98695808D01*
X113212679Y-98695808D02*
X113212679Y-98641933D01*
X113212679Y-98641933D02*
X113185741Y-98561121D01*
X113185741Y-98561121D02*
X113077992Y-98453372D01*
X113077992Y-98453372D02*
X112997180Y-98426434D01*
X112997180Y-98426434D02*
X112943305Y-98426434D01*
X112943305Y-98426434D02*
X112862493Y-98453372D01*
X137207998Y-122390868D02*
X137127185Y-122417805D01*
X137127185Y-122417805D02*
X137046373Y-122498618D01*
X137046373Y-122498618D02*
X136992498Y-122606367D01*
X136992498Y-122606367D02*
X136992498Y-122714117D01*
X136992498Y-122714117D02*
X137019436Y-122794929D01*
X137019436Y-122794929D02*
X137100248Y-122929616D01*
X137100248Y-122929616D02*
X137181060Y-123010428D01*
X137181060Y-123010428D02*
X137315747Y-123091241D01*
X137315747Y-123091241D02*
X137396560Y-123118178D01*
X137396560Y-123118178D02*
X137504309Y-123118178D01*
X137504309Y-123118178D02*
X137612059Y-123064303D01*
X137612059Y-123064303D02*
X137665934Y-123010428D01*
X137665934Y-123010428D02*
X137719808Y-122902679D01*
X137719808Y-122902679D02*
X137719808Y-122848804D01*
X137719808Y-122848804D02*
X137531247Y-122660242D01*
X137531247Y-122660242D02*
X137423497Y-122767992D01*
X138016120Y-122660242D02*
X137450434Y-122094557D01*
X137450434Y-122094557D02*
X137665934Y-121879057D01*
X137665934Y-121879057D02*
X137746746Y-121852120D01*
X137746746Y-121852120D02*
X137800621Y-121852120D01*
X137800621Y-121852120D02*
X137881433Y-121879057D01*
X137881433Y-121879057D02*
X137962245Y-121959870D01*
X137962245Y-121959870D02*
X137989182Y-122040682D01*
X137989182Y-122040682D02*
X137989182Y-122094557D01*
X137989182Y-122094557D02*
X137962245Y-122175369D01*
X137962245Y-122175369D02*
X137746746Y-122390868D01*
X138878117Y-121798245D02*
X138554868Y-122121494D01*
X138716492Y-121959870D02*
X138150807Y-121394184D01*
X138150807Y-121394184D02*
X138177744Y-121528871D01*
X138177744Y-121528871D02*
X138177744Y-121636621D01*
X138177744Y-121636621D02*
X138150807Y-121717433D01*
X138797305Y-120747686D02*
X138689555Y-120855436D01*
X138689555Y-120855436D02*
X138662618Y-120936248D01*
X138662618Y-120936248D02*
X138662618Y-120990123D01*
X138662618Y-120990123D02*
X138689555Y-121124810D01*
X138689555Y-121124810D02*
X138770367Y-121259497D01*
X138770367Y-121259497D02*
X138985866Y-121474996D01*
X138985866Y-121474996D02*
X139066679Y-121501934D01*
X139066679Y-121501934D02*
X139120553Y-121501934D01*
X139120553Y-121501934D02*
X139201366Y-121474996D01*
X139201366Y-121474996D02*
X139309115Y-121367247D01*
X139309115Y-121367247D02*
X139336053Y-121286434D01*
X139336053Y-121286434D02*
X139336053Y-121232560D01*
X139336053Y-121232560D02*
X139309115Y-121151747D01*
X139309115Y-121151747D02*
X139174428Y-121017060D01*
X139174428Y-121017060D02*
X139093616Y-120990123D01*
X139093616Y-120990123D02*
X139039741Y-120990123D01*
X139039741Y-120990123D02*
X138958929Y-121017060D01*
X138958929Y-121017060D02*
X138851179Y-121124810D01*
X138851179Y-121124810D02*
X138824242Y-121205622D01*
X138824242Y-121205622D02*
X138824242Y-121259497D01*
X138824242Y-121259497D02*
X138851179Y-121340309D01*
X137196435Y-104368431D02*
X137115623Y-104395368D01*
X137115623Y-104395368D02*
X137034811Y-104476180D01*
X137034811Y-104476180D02*
X136980936Y-104583930D01*
X136980936Y-104583930D02*
X136980936Y-104691680D01*
X136980936Y-104691680D02*
X137007873Y-104772492D01*
X137007873Y-104772492D02*
X137088685Y-104907179D01*
X137088685Y-104907179D02*
X137169498Y-104987991D01*
X137169498Y-104987991D02*
X137304185Y-105068803D01*
X137304185Y-105068803D02*
X137384997Y-105095741D01*
X137384997Y-105095741D02*
X137492746Y-105095741D01*
X137492746Y-105095741D02*
X137600496Y-105041866D01*
X137600496Y-105041866D02*
X137654371Y-104987991D01*
X137654371Y-104987991D02*
X137708246Y-104880241D01*
X137708246Y-104880241D02*
X137708246Y-104826367D01*
X137708246Y-104826367D02*
X137519684Y-104637805D01*
X137519684Y-104637805D02*
X137411934Y-104745554D01*
X138004557Y-104637805D02*
X137438872Y-104072119D01*
X137438872Y-104072119D02*
X138327806Y-104314556D01*
X138327806Y-104314556D02*
X137762120Y-103748871D01*
X138597180Y-104045182D02*
X138031494Y-103479497D01*
X138031494Y-103479497D02*
X138166181Y-103344810D01*
X138166181Y-103344810D02*
X138273931Y-103290935D01*
X138273931Y-103290935D02*
X138381680Y-103290935D01*
X138381680Y-103290935D02*
X138462493Y-103317872D01*
X138462493Y-103317872D02*
X138597180Y-103398685D01*
X138597180Y-103398685D02*
X138677992Y-103479497D01*
X138677992Y-103479497D02*
X138758804Y-103614184D01*
X138758804Y-103614184D02*
X138785741Y-103694996D01*
X138785741Y-103694996D02*
X138785741Y-103802746D01*
X138785741Y-103802746D02*
X138731867Y-103910495D01*
X138731867Y-103910495D02*
X138597180Y-104045182D01*
X111596435Y-91668431D02*
X111515623Y-91695368D01*
X111515623Y-91695368D02*
X111434811Y-91776180D01*
X111434811Y-91776180D02*
X111380936Y-91883930D01*
X111380936Y-91883930D02*
X111380936Y-91991680D01*
X111380936Y-91991680D02*
X111407873Y-92072492D01*
X111407873Y-92072492D02*
X111488685Y-92207179D01*
X111488685Y-92207179D02*
X111569498Y-92287991D01*
X111569498Y-92287991D02*
X111704185Y-92368803D01*
X111704185Y-92368803D02*
X111784997Y-92395741D01*
X111784997Y-92395741D02*
X111892746Y-92395741D01*
X111892746Y-92395741D02*
X112000496Y-92341866D01*
X112000496Y-92341866D02*
X112054371Y-92287991D01*
X112054371Y-92287991D02*
X112108246Y-92180241D01*
X112108246Y-92180241D02*
X112108246Y-92126367D01*
X112108246Y-92126367D02*
X111919684Y-91937805D01*
X111919684Y-91937805D02*
X111811934Y-92045554D01*
X112404557Y-91937805D02*
X111838872Y-91372119D01*
X111838872Y-91372119D02*
X112727806Y-91614556D01*
X112727806Y-91614556D02*
X112162120Y-91048871D01*
X112997180Y-91345182D02*
X112431494Y-90779497D01*
X112431494Y-90779497D02*
X112566181Y-90644810D01*
X112566181Y-90644810D02*
X112673931Y-90590935D01*
X112673931Y-90590935D02*
X112781680Y-90590935D01*
X112781680Y-90590935D02*
X112862493Y-90617872D01*
X112862493Y-90617872D02*
X112997180Y-90698685D01*
X112997180Y-90698685D02*
X113077992Y-90779497D01*
X113077992Y-90779497D02*
X113158804Y-90914184D01*
X113158804Y-90914184D02*
X113185741Y-90994996D01*
X113185741Y-90994996D02*
X113185741Y-91102746D01*
X113185741Y-91102746D02*
X113131867Y-91210495D01*
X113131867Y-91210495D02*
X112997180Y-91345182D01*
X137207998Y-89116868D02*
X137127185Y-89143805D01*
X137127185Y-89143805D02*
X137046373Y-89224618D01*
X137046373Y-89224618D02*
X136992498Y-89332367D01*
X136992498Y-89332367D02*
X136992498Y-89440117D01*
X136992498Y-89440117D02*
X137019436Y-89520929D01*
X137019436Y-89520929D02*
X137100248Y-89655616D01*
X137100248Y-89655616D02*
X137181060Y-89736428D01*
X137181060Y-89736428D02*
X137315747Y-89817241D01*
X137315747Y-89817241D02*
X137396560Y-89844178D01*
X137396560Y-89844178D02*
X137504309Y-89844178D01*
X137504309Y-89844178D02*
X137612059Y-89790303D01*
X137612059Y-89790303D02*
X137665934Y-89736428D01*
X137665934Y-89736428D02*
X137719808Y-89628679D01*
X137719808Y-89628679D02*
X137719808Y-89574804D01*
X137719808Y-89574804D02*
X137531247Y-89386242D01*
X137531247Y-89386242D02*
X137423497Y-89493992D01*
X138016120Y-89386242D02*
X137450434Y-88820557D01*
X137450434Y-88820557D02*
X137665934Y-88605057D01*
X137665934Y-88605057D02*
X137746746Y-88578120D01*
X137746746Y-88578120D02*
X137800621Y-88578120D01*
X137800621Y-88578120D02*
X137881433Y-88605057D01*
X137881433Y-88605057D02*
X137962245Y-88685870D01*
X137962245Y-88685870D02*
X137989182Y-88766682D01*
X137989182Y-88766682D02*
X137989182Y-88820557D01*
X137989182Y-88820557D02*
X137962245Y-88901369D01*
X137962245Y-88901369D02*
X137746746Y-89116868D01*
X138043057Y-88335683D02*
X138043057Y-88281809D01*
X138043057Y-88281809D02*
X138069995Y-88200996D01*
X138069995Y-88200996D02*
X138204682Y-88066309D01*
X138204682Y-88066309D02*
X138285494Y-88039372D01*
X138285494Y-88039372D02*
X138339369Y-88039372D01*
X138339369Y-88039372D02*
X138420181Y-88066309D01*
X138420181Y-88066309D02*
X138474056Y-88120184D01*
X138474056Y-88120184D02*
X138527930Y-88227934D01*
X138527930Y-88227934D02*
X138527930Y-88874431D01*
X138527930Y-88874431D02*
X138878117Y-88524245D01*
X138878117Y-87877747D02*
X138797305Y-87904685D01*
X138797305Y-87904685D02*
X138743430Y-87904685D01*
X138743430Y-87904685D02*
X138662618Y-87877747D01*
X138662618Y-87877747D02*
X138635680Y-87850810D01*
X138635680Y-87850810D02*
X138608743Y-87769998D01*
X138608743Y-87769998D02*
X138608743Y-87716123D01*
X138608743Y-87716123D02*
X138635680Y-87635311D01*
X138635680Y-87635311D02*
X138743430Y-87527561D01*
X138743430Y-87527561D02*
X138824242Y-87500624D01*
X138824242Y-87500624D02*
X138878117Y-87500624D01*
X138878117Y-87500624D02*
X138958929Y-87527561D01*
X138958929Y-87527561D02*
X138985866Y-87554499D01*
X138985866Y-87554499D02*
X139012804Y-87635311D01*
X139012804Y-87635311D02*
X139012804Y-87689186D01*
X139012804Y-87689186D02*
X138985866Y-87769998D01*
X138985866Y-87769998D02*
X138878117Y-87877747D01*
X138878117Y-87877747D02*
X138851179Y-87958560D01*
X138851179Y-87958560D02*
X138851179Y-88012434D01*
X138851179Y-88012434D02*
X138878117Y-88093247D01*
X138878117Y-88093247D02*
X138985866Y-88200996D01*
X138985866Y-88200996D02*
X139066679Y-88227934D01*
X139066679Y-88227934D02*
X139120553Y-88227934D01*
X139120553Y-88227934D02*
X139201366Y-88200996D01*
X139201366Y-88200996D02*
X139309115Y-88093247D01*
X139309115Y-88093247D02*
X139336053Y-88012434D01*
X139336053Y-88012434D02*
X139336053Y-87958560D01*
X139336053Y-87958560D02*
X139309115Y-87877747D01*
X139309115Y-87877747D02*
X139201366Y-87769998D01*
X139201366Y-87769998D02*
X139120553Y-87743060D01*
X139120553Y-87743060D02*
X139066679Y-87743060D01*
X139066679Y-87743060D02*
X138985866Y-87769998D01*
X111623372Y-101801494D02*
X111542560Y-101828431D01*
X111542560Y-101828431D02*
X111461748Y-101909243D01*
X111461748Y-101909243D02*
X111407873Y-102016993D01*
X111407873Y-102016993D02*
X111407873Y-102124742D01*
X111407873Y-102124742D02*
X111434810Y-102205555D01*
X111434810Y-102205555D02*
X111515623Y-102340242D01*
X111515623Y-102340242D02*
X111596435Y-102421054D01*
X111596435Y-102421054D02*
X111731122Y-102501866D01*
X111731122Y-102501866D02*
X111811934Y-102528803D01*
X111811934Y-102528803D02*
X111919684Y-102528803D01*
X111919684Y-102528803D02*
X112027433Y-102474929D01*
X112027433Y-102474929D02*
X112081308Y-102421054D01*
X112081308Y-102421054D02*
X112135183Y-102313304D01*
X112135183Y-102313304D02*
X112135183Y-102259429D01*
X112135183Y-102259429D02*
X111946621Y-102070868D01*
X111946621Y-102070868D02*
X111838871Y-102178617D01*
X112431494Y-102070868D02*
X111865809Y-101505182D01*
X111865809Y-101505182D02*
X112081308Y-101289683D01*
X112081308Y-101289683D02*
X112162120Y-101262746D01*
X112162120Y-101262746D02*
X112215995Y-101262746D01*
X112215995Y-101262746D02*
X112296807Y-101289683D01*
X112296807Y-101289683D02*
X112377619Y-101370495D01*
X112377619Y-101370495D02*
X112404557Y-101451307D01*
X112404557Y-101451307D02*
X112404557Y-101505182D01*
X112404557Y-101505182D02*
X112377619Y-101585994D01*
X112377619Y-101585994D02*
X112162120Y-101801494D01*
X113024117Y-101478245D02*
X113131867Y-101370495D01*
X113131867Y-101370495D02*
X113158804Y-101289683D01*
X113158804Y-101289683D02*
X113158804Y-101235808D01*
X113158804Y-101235808D02*
X113131867Y-101101121D01*
X113131867Y-101101121D02*
X113051054Y-100966434D01*
X113051054Y-100966434D02*
X112835555Y-100750935D01*
X112835555Y-100750935D02*
X112754743Y-100723998D01*
X112754743Y-100723998D02*
X112700868Y-100723998D01*
X112700868Y-100723998D02*
X112620056Y-100750935D01*
X112620056Y-100750935D02*
X112512306Y-100858685D01*
X112512306Y-100858685D02*
X112485369Y-100939497D01*
X112485369Y-100939497D02*
X112485369Y-100993372D01*
X112485369Y-100993372D02*
X112512306Y-101074184D01*
X112512306Y-101074184D02*
X112646993Y-101208871D01*
X112646993Y-101208871D02*
X112727806Y-101235808D01*
X112727806Y-101235808D02*
X112781680Y-101235808D01*
X112781680Y-101235808D02*
X112862493Y-101208871D01*
X112862493Y-101208871D02*
X112970242Y-101101121D01*
X112970242Y-101101121D02*
X112997180Y-101020309D01*
X112997180Y-101020309D02*
X112997180Y-100966434D01*
X112997180Y-100966434D02*
X112970242Y-100885622D01*
X129014761Y-124394200D02*
X129129047Y-124432295D01*
X129129047Y-124432295D02*
X129319523Y-124432295D01*
X129319523Y-124432295D02*
X129395714Y-124394200D01*
X129395714Y-124394200D02*
X129433809Y-124356104D01*
X129433809Y-124356104D02*
X129471904Y-124279914D01*
X129471904Y-124279914D02*
X129471904Y-124203723D01*
X129471904Y-124203723D02*
X129433809Y-124127533D01*
X129433809Y-124127533D02*
X129395714Y-124089438D01*
X129395714Y-124089438D02*
X129319523Y-124051342D01*
X129319523Y-124051342D02*
X129167142Y-124013247D01*
X129167142Y-124013247D02*
X129090952Y-123975152D01*
X129090952Y-123975152D02*
X129052857Y-123937057D01*
X129052857Y-123937057D02*
X129014761Y-123860866D01*
X129014761Y-123860866D02*
X129014761Y-123784676D01*
X129014761Y-123784676D02*
X129052857Y-123708485D01*
X129052857Y-123708485D02*
X129090952Y-123670390D01*
X129090952Y-123670390D02*
X129167142Y-123632295D01*
X129167142Y-123632295D02*
X129357619Y-123632295D01*
X129357619Y-123632295D02*
X129471904Y-123670390D01*
X129738571Y-123632295D02*
X129929047Y-124432295D01*
X129929047Y-124432295D02*
X130081428Y-123860866D01*
X130081428Y-123860866D02*
X130233809Y-124432295D01*
X130233809Y-124432295D02*
X130424286Y-123632295D01*
X130729048Y-124432295D02*
X130729048Y-123632295D01*
X130729048Y-123632295D02*
X130919524Y-123632295D01*
X130919524Y-123632295D02*
X131033810Y-123670390D01*
X131033810Y-123670390D02*
X131110000Y-123746580D01*
X131110000Y-123746580D02*
X131148095Y-123822771D01*
X131148095Y-123822771D02*
X131186191Y-123975152D01*
X131186191Y-123975152D02*
X131186191Y-124089438D01*
X131186191Y-124089438D02*
X131148095Y-124241819D01*
X131148095Y-124241819D02*
X131110000Y-124318009D01*
X131110000Y-124318009D02*
X131033810Y-124394200D01*
X131033810Y-124394200D02*
X130919524Y-124432295D01*
X130919524Y-124432295D02*
X130729048Y-124432295D01*
X131529048Y-124432295D02*
X131529048Y-123632295D01*
X132062381Y-123632295D02*
X132214762Y-123632295D01*
X132214762Y-123632295D02*
X132290952Y-123670390D01*
X132290952Y-123670390D02*
X132367143Y-123746580D01*
X132367143Y-123746580D02*
X132405238Y-123898961D01*
X132405238Y-123898961D02*
X132405238Y-124165628D01*
X132405238Y-124165628D02*
X132367143Y-124318009D01*
X132367143Y-124318009D02*
X132290952Y-124394200D01*
X132290952Y-124394200D02*
X132214762Y-124432295D01*
X132214762Y-124432295D02*
X132062381Y-124432295D01*
X132062381Y-124432295D02*
X131986190Y-124394200D01*
X131986190Y-124394200D02*
X131910000Y-124318009D01*
X131910000Y-124318009D02*
X131871904Y-124165628D01*
X131871904Y-124165628D02*
X131871904Y-123898961D01*
X131871904Y-123898961D02*
X131910000Y-123746580D01*
X131910000Y-123746580D02*
X131986190Y-123670390D01*
X131986190Y-123670390D02*
X132062381Y-123632295D01*
X111623372Y-89101494D02*
X111542560Y-89128431D01*
X111542560Y-89128431D02*
X111461748Y-89209243D01*
X111461748Y-89209243D02*
X111407873Y-89316993D01*
X111407873Y-89316993D02*
X111407873Y-89424742D01*
X111407873Y-89424742D02*
X111434810Y-89505555D01*
X111434810Y-89505555D02*
X111515623Y-89640242D01*
X111515623Y-89640242D02*
X111596435Y-89721054D01*
X111596435Y-89721054D02*
X111731122Y-89801866D01*
X111731122Y-89801866D02*
X111811934Y-89828803D01*
X111811934Y-89828803D02*
X111919684Y-89828803D01*
X111919684Y-89828803D02*
X112027433Y-89774929D01*
X112027433Y-89774929D02*
X112081308Y-89721054D01*
X112081308Y-89721054D02*
X112135183Y-89613304D01*
X112135183Y-89613304D02*
X112135183Y-89559429D01*
X112135183Y-89559429D02*
X111946621Y-89370868D01*
X111946621Y-89370868D02*
X111838871Y-89478617D01*
X112431494Y-89370868D02*
X111865809Y-88805182D01*
X111865809Y-88805182D02*
X112081308Y-88589683D01*
X112081308Y-88589683D02*
X112162120Y-88562746D01*
X112162120Y-88562746D02*
X112215995Y-88562746D01*
X112215995Y-88562746D02*
X112296807Y-88589683D01*
X112296807Y-88589683D02*
X112377619Y-88670495D01*
X112377619Y-88670495D02*
X112404557Y-88751307D01*
X112404557Y-88751307D02*
X112404557Y-88805182D01*
X112404557Y-88805182D02*
X112377619Y-88885994D01*
X112377619Y-88885994D02*
X112162120Y-89101494D01*
X112700868Y-87970123D02*
X112431494Y-88239497D01*
X112431494Y-88239497D02*
X112673931Y-88535808D01*
X112673931Y-88535808D02*
X112673931Y-88481933D01*
X112673931Y-88481933D02*
X112700868Y-88401121D01*
X112700868Y-88401121D02*
X112835555Y-88266434D01*
X112835555Y-88266434D02*
X112916367Y-88239497D01*
X112916367Y-88239497D02*
X112970242Y-88239497D01*
X112970242Y-88239497D02*
X113051054Y-88266434D01*
X113051054Y-88266434D02*
X113185741Y-88401121D01*
X113185741Y-88401121D02*
X113212679Y-88481933D01*
X113212679Y-88481933D02*
X113212679Y-88535808D01*
X113212679Y-88535808D02*
X113185741Y-88616620D01*
X113185741Y-88616620D02*
X113051054Y-88751307D01*
X113051054Y-88751307D02*
X112970242Y-88778245D01*
X112970242Y-88778245D02*
X112916367Y-88778245D01*
X111623372Y-73861494D02*
X111542560Y-73888431D01*
X111542560Y-73888431D02*
X111461748Y-73969243D01*
X111461748Y-73969243D02*
X111407873Y-74076993D01*
X111407873Y-74076993D02*
X111407873Y-74184742D01*
X111407873Y-74184742D02*
X111434810Y-74265555D01*
X111434810Y-74265555D02*
X111515623Y-74400242D01*
X111515623Y-74400242D02*
X111596435Y-74481054D01*
X111596435Y-74481054D02*
X111731122Y-74561866D01*
X111731122Y-74561866D02*
X111811934Y-74588803D01*
X111811934Y-74588803D02*
X111919684Y-74588803D01*
X111919684Y-74588803D02*
X112027433Y-74534929D01*
X112027433Y-74534929D02*
X112081308Y-74481054D01*
X112081308Y-74481054D02*
X112135183Y-74373304D01*
X112135183Y-74373304D02*
X112135183Y-74319429D01*
X112135183Y-74319429D02*
X111946621Y-74130868D01*
X111946621Y-74130868D02*
X111838871Y-74238617D01*
X112431494Y-74130868D02*
X111865809Y-73565182D01*
X111865809Y-73565182D02*
X112081308Y-73349683D01*
X112081308Y-73349683D02*
X112162120Y-73322746D01*
X112162120Y-73322746D02*
X112215995Y-73322746D01*
X112215995Y-73322746D02*
X112296807Y-73349683D01*
X112296807Y-73349683D02*
X112377619Y-73430495D01*
X112377619Y-73430495D02*
X112404557Y-73511307D01*
X112404557Y-73511307D02*
X112404557Y-73565182D01*
X112404557Y-73565182D02*
X112377619Y-73645994D01*
X112377619Y-73645994D02*
X112162120Y-73861494D01*
X112539244Y-72891747D02*
X112593119Y-72837872D01*
X112593119Y-72837872D02*
X112673931Y-72810935D01*
X112673931Y-72810935D02*
X112727806Y-72810935D01*
X112727806Y-72810935D02*
X112808618Y-72837872D01*
X112808618Y-72837872D02*
X112943305Y-72918685D01*
X112943305Y-72918685D02*
X113077992Y-73053372D01*
X113077992Y-73053372D02*
X113158804Y-73188059D01*
X113158804Y-73188059D02*
X113185741Y-73268871D01*
X113185741Y-73268871D02*
X113185741Y-73322746D01*
X113185741Y-73322746D02*
X113158804Y-73403558D01*
X113158804Y-73403558D02*
X113104929Y-73457433D01*
X113104929Y-73457433D02*
X113024117Y-73484370D01*
X113024117Y-73484370D02*
X112970242Y-73484370D01*
X112970242Y-73484370D02*
X112889430Y-73457433D01*
X112889430Y-73457433D02*
X112754743Y-73376620D01*
X112754743Y-73376620D02*
X112620056Y-73241933D01*
X112620056Y-73241933D02*
X112539244Y-73107246D01*
X112539244Y-73107246D02*
X112512306Y-73026434D01*
X112512306Y-73026434D02*
X112512306Y-72972559D01*
X112512306Y-72972559D02*
X112539244Y-72891747D01*
X111623372Y-84021494D02*
X111542560Y-84048431D01*
X111542560Y-84048431D02*
X111461748Y-84129243D01*
X111461748Y-84129243D02*
X111407873Y-84236993D01*
X111407873Y-84236993D02*
X111407873Y-84344742D01*
X111407873Y-84344742D02*
X111434810Y-84425555D01*
X111434810Y-84425555D02*
X111515623Y-84560242D01*
X111515623Y-84560242D02*
X111596435Y-84641054D01*
X111596435Y-84641054D02*
X111731122Y-84721866D01*
X111731122Y-84721866D02*
X111811934Y-84748803D01*
X111811934Y-84748803D02*
X111919684Y-84748803D01*
X111919684Y-84748803D02*
X112027433Y-84694929D01*
X112027433Y-84694929D02*
X112081308Y-84641054D01*
X112081308Y-84641054D02*
X112135183Y-84533304D01*
X112135183Y-84533304D02*
X112135183Y-84479429D01*
X112135183Y-84479429D02*
X111946621Y-84290868D01*
X111946621Y-84290868D02*
X111838871Y-84398617D01*
X112431494Y-84290868D02*
X111865809Y-83725182D01*
X111865809Y-83725182D02*
X112081308Y-83509683D01*
X112081308Y-83509683D02*
X112162120Y-83482746D01*
X112162120Y-83482746D02*
X112215995Y-83482746D01*
X112215995Y-83482746D02*
X112296807Y-83509683D01*
X112296807Y-83509683D02*
X112377619Y-83590495D01*
X112377619Y-83590495D02*
X112404557Y-83671307D01*
X112404557Y-83671307D02*
X112404557Y-83725182D01*
X112404557Y-83725182D02*
X112377619Y-83805994D01*
X112377619Y-83805994D02*
X112162120Y-84021494D01*
X112377619Y-83213372D02*
X112727806Y-82863185D01*
X112727806Y-82863185D02*
X112754743Y-83267246D01*
X112754743Y-83267246D02*
X112835555Y-83186434D01*
X112835555Y-83186434D02*
X112916367Y-83159497D01*
X112916367Y-83159497D02*
X112970242Y-83159497D01*
X112970242Y-83159497D02*
X113051054Y-83186434D01*
X113051054Y-83186434D02*
X113185741Y-83321121D01*
X113185741Y-83321121D02*
X113212679Y-83401933D01*
X113212679Y-83401933D02*
X113212679Y-83455808D01*
X113212679Y-83455808D02*
X113185741Y-83536620D01*
X113185741Y-83536620D02*
X113024117Y-83698245D01*
X113024117Y-83698245D02*
X112943305Y-83725182D01*
X112943305Y-83725182D02*
X112889430Y-83725182D01*
X111596435Y-117068431D02*
X111515623Y-117095368D01*
X111515623Y-117095368D02*
X111434811Y-117176180D01*
X111434811Y-117176180D02*
X111380936Y-117283930D01*
X111380936Y-117283930D02*
X111380936Y-117391680D01*
X111380936Y-117391680D02*
X111407873Y-117472492D01*
X111407873Y-117472492D02*
X111488685Y-117607179D01*
X111488685Y-117607179D02*
X111569498Y-117687991D01*
X111569498Y-117687991D02*
X111704185Y-117768803D01*
X111704185Y-117768803D02*
X111784997Y-117795741D01*
X111784997Y-117795741D02*
X111892746Y-117795741D01*
X111892746Y-117795741D02*
X112000496Y-117741866D01*
X112000496Y-117741866D02*
X112054371Y-117687991D01*
X112054371Y-117687991D02*
X112108246Y-117580241D01*
X112108246Y-117580241D02*
X112108246Y-117526367D01*
X112108246Y-117526367D02*
X111919684Y-117337805D01*
X111919684Y-117337805D02*
X111811934Y-117445554D01*
X112404557Y-117337805D02*
X111838872Y-116772119D01*
X111838872Y-116772119D02*
X112727806Y-117014556D01*
X112727806Y-117014556D02*
X112162120Y-116448871D01*
X112997180Y-116745182D02*
X112431494Y-116179497D01*
X112431494Y-116179497D02*
X112566181Y-116044810D01*
X112566181Y-116044810D02*
X112673931Y-115990935D01*
X112673931Y-115990935D02*
X112781680Y-115990935D01*
X112781680Y-115990935D02*
X112862493Y-116017872D01*
X112862493Y-116017872D02*
X112997180Y-116098685D01*
X112997180Y-116098685D02*
X113077992Y-116179497D01*
X113077992Y-116179497D02*
X113158804Y-116314184D01*
X113158804Y-116314184D02*
X113185741Y-116394996D01*
X113185741Y-116394996D02*
X113185741Y-116502746D01*
X113185741Y-116502746D02*
X113131867Y-116610495D01*
X113131867Y-116610495D02*
X112997180Y-116745182D01*
X111596435Y-78968431D02*
X111515623Y-78995368D01*
X111515623Y-78995368D02*
X111434811Y-79076180D01*
X111434811Y-79076180D02*
X111380936Y-79183930D01*
X111380936Y-79183930D02*
X111380936Y-79291680D01*
X111380936Y-79291680D02*
X111407873Y-79372492D01*
X111407873Y-79372492D02*
X111488685Y-79507179D01*
X111488685Y-79507179D02*
X111569498Y-79587991D01*
X111569498Y-79587991D02*
X111704185Y-79668803D01*
X111704185Y-79668803D02*
X111784997Y-79695741D01*
X111784997Y-79695741D02*
X111892746Y-79695741D01*
X111892746Y-79695741D02*
X112000496Y-79641866D01*
X112000496Y-79641866D02*
X112054371Y-79587991D01*
X112054371Y-79587991D02*
X112108246Y-79480241D01*
X112108246Y-79480241D02*
X112108246Y-79426367D01*
X112108246Y-79426367D02*
X111919684Y-79237805D01*
X111919684Y-79237805D02*
X111811934Y-79345554D01*
X112404557Y-79237805D02*
X111838872Y-78672119D01*
X111838872Y-78672119D02*
X112727806Y-78914556D01*
X112727806Y-78914556D02*
X112162120Y-78348871D01*
X112997180Y-78645182D02*
X112431494Y-78079497D01*
X112431494Y-78079497D02*
X112566181Y-77944810D01*
X112566181Y-77944810D02*
X112673931Y-77890935D01*
X112673931Y-77890935D02*
X112781680Y-77890935D01*
X112781680Y-77890935D02*
X112862493Y-77917872D01*
X112862493Y-77917872D02*
X112997180Y-77998685D01*
X112997180Y-77998685D02*
X113077992Y-78079497D01*
X113077992Y-78079497D02*
X113158804Y-78214184D01*
X113158804Y-78214184D02*
X113185741Y-78294996D01*
X113185741Y-78294996D02*
X113185741Y-78402746D01*
X113185741Y-78402746D02*
X113131867Y-78510495D01*
X113131867Y-78510495D02*
X112997180Y-78645182D01*
X137207998Y-109690868D02*
X137127185Y-109717805D01*
X137127185Y-109717805D02*
X137046373Y-109798618D01*
X137046373Y-109798618D02*
X136992498Y-109906367D01*
X136992498Y-109906367D02*
X136992498Y-110014117D01*
X136992498Y-110014117D02*
X137019436Y-110094929D01*
X137019436Y-110094929D02*
X137100248Y-110229616D01*
X137100248Y-110229616D02*
X137181060Y-110310428D01*
X137181060Y-110310428D02*
X137315747Y-110391241D01*
X137315747Y-110391241D02*
X137396560Y-110418178D01*
X137396560Y-110418178D02*
X137504309Y-110418178D01*
X137504309Y-110418178D02*
X137612059Y-110364303D01*
X137612059Y-110364303D02*
X137665934Y-110310428D01*
X137665934Y-110310428D02*
X137719808Y-110202679D01*
X137719808Y-110202679D02*
X137719808Y-110148804D01*
X137719808Y-110148804D02*
X137531247Y-109960242D01*
X137531247Y-109960242D02*
X137423497Y-110067992D01*
X138016120Y-109960242D02*
X137450434Y-109394557D01*
X137450434Y-109394557D02*
X137665934Y-109179057D01*
X137665934Y-109179057D02*
X137746746Y-109152120D01*
X137746746Y-109152120D02*
X137800621Y-109152120D01*
X137800621Y-109152120D02*
X137881433Y-109179057D01*
X137881433Y-109179057D02*
X137962245Y-109259870D01*
X137962245Y-109259870D02*
X137989182Y-109340682D01*
X137989182Y-109340682D02*
X137989182Y-109394557D01*
X137989182Y-109394557D02*
X137962245Y-109475369D01*
X137962245Y-109475369D02*
X137746746Y-109690868D01*
X138043057Y-108909683D02*
X138043057Y-108855809D01*
X138043057Y-108855809D02*
X138069995Y-108774996D01*
X138069995Y-108774996D02*
X138204682Y-108640309D01*
X138204682Y-108640309D02*
X138285494Y-108613372D01*
X138285494Y-108613372D02*
X138339369Y-108613372D01*
X138339369Y-108613372D02*
X138420181Y-108640309D01*
X138420181Y-108640309D02*
X138474056Y-108694184D01*
X138474056Y-108694184D02*
X138527930Y-108801934D01*
X138527930Y-108801934D02*
X138527930Y-109448431D01*
X138527930Y-109448431D02*
X138878117Y-109098245D01*
X138662618Y-108182373D02*
X138716492Y-108128499D01*
X138716492Y-108128499D02*
X138797305Y-108101561D01*
X138797305Y-108101561D02*
X138851179Y-108101561D01*
X138851179Y-108101561D02*
X138931992Y-108128499D01*
X138931992Y-108128499D02*
X139066679Y-108209311D01*
X139066679Y-108209311D02*
X139201366Y-108343998D01*
X139201366Y-108343998D02*
X139282178Y-108478685D01*
X139282178Y-108478685D02*
X139309115Y-108559497D01*
X139309115Y-108559497D02*
X139309115Y-108613372D01*
X139309115Y-108613372D02*
X139282178Y-108694184D01*
X139282178Y-108694184D02*
X139228303Y-108748059D01*
X139228303Y-108748059D02*
X139147491Y-108774996D01*
X139147491Y-108774996D02*
X139093616Y-108774996D01*
X139093616Y-108774996D02*
X139012804Y-108748059D01*
X139012804Y-108748059D02*
X138878117Y-108667247D01*
X138878117Y-108667247D02*
X138743430Y-108532560D01*
X138743430Y-108532560D02*
X138662618Y-108397873D01*
X138662618Y-108397873D02*
X138635680Y-108317060D01*
X138635680Y-108317060D02*
X138635680Y-108263186D01*
X138635680Y-108263186D02*
X138662618Y-108182373D01*
X137207998Y-112230868D02*
X137127185Y-112257805D01*
X137127185Y-112257805D02*
X137046373Y-112338618D01*
X137046373Y-112338618D02*
X136992498Y-112446367D01*
X136992498Y-112446367D02*
X136992498Y-112554117D01*
X136992498Y-112554117D02*
X137019436Y-112634929D01*
X137019436Y-112634929D02*
X137100248Y-112769616D01*
X137100248Y-112769616D02*
X137181060Y-112850428D01*
X137181060Y-112850428D02*
X137315747Y-112931241D01*
X137315747Y-112931241D02*
X137396560Y-112958178D01*
X137396560Y-112958178D02*
X137504309Y-112958178D01*
X137504309Y-112958178D02*
X137612059Y-112904303D01*
X137612059Y-112904303D02*
X137665934Y-112850428D01*
X137665934Y-112850428D02*
X137719808Y-112742679D01*
X137719808Y-112742679D02*
X137719808Y-112688804D01*
X137719808Y-112688804D02*
X137531247Y-112500242D01*
X137531247Y-112500242D02*
X137423497Y-112607992D01*
X138016120Y-112500242D02*
X137450434Y-111934557D01*
X137450434Y-111934557D02*
X137665934Y-111719057D01*
X137665934Y-111719057D02*
X137746746Y-111692120D01*
X137746746Y-111692120D02*
X137800621Y-111692120D01*
X137800621Y-111692120D02*
X137881433Y-111719057D01*
X137881433Y-111719057D02*
X137962245Y-111799870D01*
X137962245Y-111799870D02*
X137989182Y-111880682D01*
X137989182Y-111880682D02*
X137989182Y-111934557D01*
X137989182Y-111934557D02*
X137962245Y-112015369D01*
X137962245Y-112015369D02*
X137746746Y-112230868D01*
X138878117Y-111638245D02*
X138554868Y-111961494D01*
X138716492Y-111799870D02*
X138150807Y-111234184D01*
X138150807Y-111234184D02*
X138177744Y-111368871D01*
X138177744Y-111368871D02*
X138177744Y-111476621D01*
X138177744Y-111476621D02*
X138150807Y-111557433D01*
X139147491Y-111368871D02*
X139255240Y-111261121D01*
X139255240Y-111261121D02*
X139282178Y-111180309D01*
X139282178Y-111180309D02*
X139282178Y-111126434D01*
X139282178Y-111126434D02*
X139255240Y-110991747D01*
X139255240Y-110991747D02*
X139174428Y-110857060D01*
X139174428Y-110857060D02*
X138958929Y-110641561D01*
X138958929Y-110641561D02*
X138878117Y-110614624D01*
X138878117Y-110614624D02*
X138824242Y-110614624D01*
X138824242Y-110614624D02*
X138743430Y-110641561D01*
X138743430Y-110641561D02*
X138635680Y-110749311D01*
X138635680Y-110749311D02*
X138608743Y-110830123D01*
X138608743Y-110830123D02*
X138608743Y-110883998D01*
X138608743Y-110883998D02*
X138635680Y-110964810D01*
X138635680Y-110964810D02*
X138770367Y-111099497D01*
X138770367Y-111099497D02*
X138851179Y-111126434D01*
X138851179Y-111126434D02*
X138905054Y-111126434D01*
X138905054Y-111126434D02*
X138985866Y-111099497D01*
X138985866Y-111099497D02*
X139093616Y-110991747D01*
X139093616Y-110991747D02*
X139120553Y-110910935D01*
X139120553Y-110910935D02*
X139120553Y-110857060D01*
X139120553Y-110857060D02*
X139093616Y-110776248D01*
X111523372Y-81481494D02*
X111442560Y-81508431D01*
X111442560Y-81508431D02*
X111361748Y-81589243D01*
X111361748Y-81589243D02*
X111307873Y-81696993D01*
X111307873Y-81696993D02*
X111307873Y-81804742D01*
X111307873Y-81804742D02*
X111334810Y-81885555D01*
X111334810Y-81885555D02*
X111415623Y-82020242D01*
X111415623Y-82020242D02*
X111496435Y-82101054D01*
X111496435Y-82101054D02*
X111631122Y-82181866D01*
X111631122Y-82181866D02*
X111711934Y-82208803D01*
X111711934Y-82208803D02*
X111819684Y-82208803D01*
X111819684Y-82208803D02*
X111927433Y-82154929D01*
X111927433Y-82154929D02*
X111981308Y-82101054D01*
X111981308Y-82101054D02*
X112035183Y-81993304D01*
X112035183Y-81993304D02*
X112035183Y-81939429D01*
X112035183Y-81939429D02*
X111846621Y-81750868D01*
X111846621Y-81750868D02*
X111738871Y-81858617D01*
X112331494Y-81750868D02*
X111765809Y-81185182D01*
X111765809Y-81185182D02*
X111981308Y-80969683D01*
X111981308Y-80969683D02*
X112062120Y-80942746D01*
X112062120Y-80942746D02*
X112115995Y-80942746D01*
X112115995Y-80942746D02*
X112196807Y-80969683D01*
X112196807Y-80969683D02*
X112277619Y-81050495D01*
X112277619Y-81050495D02*
X112304557Y-81131307D01*
X112304557Y-81131307D02*
X112304557Y-81185182D01*
X112304557Y-81185182D02*
X112277619Y-81265994D01*
X112277619Y-81265994D02*
X112062120Y-81481494D01*
X112358432Y-80700309D02*
X112358432Y-80646434D01*
X112358432Y-80646434D02*
X112385369Y-80565622D01*
X112385369Y-80565622D02*
X112520056Y-80430935D01*
X112520056Y-80430935D02*
X112600868Y-80403998D01*
X112600868Y-80403998D02*
X112654743Y-80403998D01*
X112654743Y-80403998D02*
X112735555Y-80430935D01*
X112735555Y-80430935D02*
X112789430Y-80484810D01*
X112789430Y-80484810D02*
X112843305Y-80592559D01*
X112843305Y-80592559D02*
X112843305Y-81239057D01*
X112843305Y-81239057D02*
X113193491Y-80888871D01*
X137207998Y-114770868D02*
X137127185Y-114797805D01*
X137127185Y-114797805D02*
X137046373Y-114878618D01*
X137046373Y-114878618D02*
X136992498Y-114986367D01*
X136992498Y-114986367D02*
X136992498Y-115094117D01*
X136992498Y-115094117D02*
X137019436Y-115174929D01*
X137019436Y-115174929D02*
X137100248Y-115309616D01*
X137100248Y-115309616D02*
X137181060Y-115390428D01*
X137181060Y-115390428D02*
X137315747Y-115471241D01*
X137315747Y-115471241D02*
X137396560Y-115498178D01*
X137396560Y-115498178D02*
X137504309Y-115498178D01*
X137504309Y-115498178D02*
X137612059Y-115444303D01*
X137612059Y-115444303D02*
X137665934Y-115390428D01*
X137665934Y-115390428D02*
X137719808Y-115282679D01*
X137719808Y-115282679D02*
X137719808Y-115228804D01*
X137719808Y-115228804D02*
X137531247Y-115040242D01*
X137531247Y-115040242D02*
X137423497Y-115147992D01*
X138016120Y-115040242D02*
X137450434Y-114474557D01*
X137450434Y-114474557D02*
X137665934Y-114259057D01*
X137665934Y-114259057D02*
X137746746Y-114232120D01*
X137746746Y-114232120D02*
X137800621Y-114232120D01*
X137800621Y-114232120D02*
X137881433Y-114259057D01*
X137881433Y-114259057D02*
X137962245Y-114339870D01*
X137962245Y-114339870D02*
X137989182Y-114420682D01*
X137989182Y-114420682D02*
X137989182Y-114474557D01*
X137989182Y-114474557D02*
X137962245Y-114555369D01*
X137962245Y-114555369D02*
X137746746Y-114770868D01*
X138878117Y-114178245D02*
X138554868Y-114501494D01*
X138716492Y-114339870D02*
X138150807Y-113774184D01*
X138150807Y-113774184D02*
X138177744Y-113908871D01*
X138177744Y-113908871D02*
X138177744Y-114016621D01*
X138177744Y-114016621D02*
X138150807Y-114097433D01*
X138878117Y-113531747D02*
X138797305Y-113558685D01*
X138797305Y-113558685D02*
X138743430Y-113558685D01*
X138743430Y-113558685D02*
X138662618Y-113531747D01*
X138662618Y-113531747D02*
X138635680Y-113504810D01*
X138635680Y-113504810D02*
X138608743Y-113423998D01*
X138608743Y-113423998D02*
X138608743Y-113370123D01*
X138608743Y-113370123D02*
X138635680Y-113289311D01*
X138635680Y-113289311D02*
X138743430Y-113181561D01*
X138743430Y-113181561D02*
X138824242Y-113154624D01*
X138824242Y-113154624D02*
X138878117Y-113154624D01*
X138878117Y-113154624D02*
X138958929Y-113181561D01*
X138958929Y-113181561D02*
X138985866Y-113208499D01*
X138985866Y-113208499D02*
X139012804Y-113289311D01*
X139012804Y-113289311D02*
X139012804Y-113343186D01*
X139012804Y-113343186D02*
X138985866Y-113423998D01*
X138985866Y-113423998D02*
X138878117Y-113531747D01*
X138878117Y-113531747D02*
X138851179Y-113612560D01*
X138851179Y-113612560D02*
X138851179Y-113666434D01*
X138851179Y-113666434D02*
X138878117Y-113747247D01*
X138878117Y-113747247D02*
X138985866Y-113854996D01*
X138985866Y-113854996D02*
X139066679Y-113881934D01*
X139066679Y-113881934D02*
X139120553Y-113881934D01*
X139120553Y-113881934D02*
X139201366Y-113854996D01*
X139201366Y-113854996D02*
X139309115Y-113747247D01*
X139309115Y-113747247D02*
X139336053Y-113666434D01*
X139336053Y-113666434D02*
X139336053Y-113612560D01*
X139336053Y-113612560D02*
X139309115Y-113531747D01*
X139309115Y-113531747D02*
X139201366Y-113423998D01*
X139201366Y-113423998D02*
X139120553Y-113397060D01*
X139120553Y-113397060D02*
X139066679Y-113397060D01*
X139066679Y-113397060D02*
X138985866Y-113423998D01*
X111623372Y-94181494D02*
X111542560Y-94208431D01*
X111542560Y-94208431D02*
X111461748Y-94289243D01*
X111461748Y-94289243D02*
X111407873Y-94396993D01*
X111407873Y-94396993D02*
X111407873Y-94504742D01*
X111407873Y-94504742D02*
X111434810Y-94585555D01*
X111434810Y-94585555D02*
X111515623Y-94720242D01*
X111515623Y-94720242D02*
X111596435Y-94801054D01*
X111596435Y-94801054D02*
X111731122Y-94881866D01*
X111731122Y-94881866D02*
X111811934Y-94908803D01*
X111811934Y-94908803D02*
X111919684Y-94908803D01*
X111919684Y-94908803D02*
X112027433Y-94854929D01*
X112027433Y-94854929D02*
X112081308Y-94801054D01*
X112081308Y-94801054D02*
X112135183Y-94693304D01*
X112135183Y-94693304D02*
X112135183Y-94639429D01*
X112135183Y-94639429D02*
X111946621Y-94450868D01*
X111946621Y-94450868D02*
X111838871Y-94558617D01*
X112431494Y-94450868D02*
X111865809Y-93885182D01*
X111865809Y-93885182D02*
X112081308Y-93669683D01*
X112081308Y-93669683D02*
X112162120Y-93642746D01*
X112162120Y-93642746D02*
X112215995Y-93642746D01*
X112215995Y-93642746D02*
X112296807Y-93669683D01*
X112296807Y-93669683D02*
X112377619Y-93750495D01*
X112377619Y-93750495D02*
X112404557Y-93831307D01*
X112404557Y-93831307D02*
X112404557Y-93885182D01*
X112404557Y-93885182D02*
X112377619Y-93965994D01*
X112377619Y-93965994D02*
X112162120Y-94181494D01*
X112673931Y-93077060D02*
X112566181Y-93184810D01*
X112566181Y-93184810D02*
X112539244Y-93265622D01*
X112539244Y-93265622D02*
X112539244Y-93319497D01*
X112539244Y-93319497D02*
X112566181Y-93454184D01*
X112566181Y-93454184D02*
X112646993Y-93588871D01*
X112646993Y-93588871D02*
X112862493Y-93804370D01*
X112862493Y-93804370D02*
X112943305Y-93831307D01*
X112943305Y-93831307D02*
X112997180Y-93831307D01*
X112997180Y-93831307D02*
X113077992Y-93804370D01*
X113077992Y-93804370D02*
X113185741Y-93696620D01*
X113185741Y-93696620D02*
X113212679Y-93615808D01*
X113212679Y-93615808D02*
X113212679Y-93561933D01*
X113212679Y-93561933D02*
X113185741Y-93481121D01*
X113185741Y-93481121D02*
X113051054Y-93346434D01*
X113051054Y-93346434D02*
X112970242Y-93319497D01*
X112970242Y-93319497D02*
X112916367Y-93319497D01*
X112916367Y-93319497D02*
X112835555Y-93346434D01*
X112835555Y-93346434D02*
X112727806Y-93454184D01*
X112727806Y-93454184D02*
X112700868Y-93534996D01*
X112700868Y-93534996D02*
X112700868Y-93588871D01*
X112700868Y-93588871D02*
X112727806Y-93669683D01*
X137207998Y-107160868D02*
X137127185Y-107187805D01*
X137127185Y-107187805D02*
X137046373Y-107268618D01*
X137046373Y-107268618D02*
X136992498Y-107376367D01*
X136992498Y-107376367D02*
X136992498Y-107484117D01*
X136992498Y-107484117D02*
X137019436Y-107564929D01*
X137019436Y-107564929D02*
X137100248Y-107699616D01*
X137100248Y-107699616D02*
X137181060Y-107780428D01*
X137181060Y-107780428D02*
X137315747Y-107861241D01*
X137315747Y-107861241D02*
X137396560Y-107888178D01*
X137396560Y-107888178D02*
X137504309Y-107888178D01*
X137504309Y-107888178D02*
X137612059Y-107834303D01*
X137612059Y-107834303D02*
X137665934Y-107780428D01*
X137665934Y-107780428D02*
X137719808Y-107672679D01*
X137719808Y-107672679D02*
X137719808Y-107618804D01*
X137719808Y-107618804D02*
X137531247Y-107430242D01*
X137531247Y-107430242D02*
X137423497Y-107537992D01*
X138016120Y-107430242D02*
X137450434Y-106864557D01*
X137450434Y-106864557D02*
X137665934Y-106649057D01*
X137665934Y-106649057D02*
X137746746Y-106622120D01*
X137746746Y-106622120D02*
X137800621Y-106622120D01*
X137800621Y-106622120D02*
X137881433Y-106649057D01*
X137881433Y-106649057D02*
X137962245Y-106729870D01*
X137962245Y-106729870D02*
X137989182Y-106810682D01*
X137989182Y-106810682D02*
X137989182Y-106864557D01*
X137989182Y-106864557D02*
X137962245Y-106945369D01*
X137962245Y-106945369D02*
X137746746Y-107160868D01*
X138043057Y-106379683D02*
X138043057Y-106325809D01*
X138043057Y-106325809D02*
X138069995Y-106244996D01*
X138069995Y-106244996D02*
X138204682Y-106110309D01*
X138204682Y-106110309D02*
X138285494Y-106083372D01*
X138285494Y-106083372D02*
X138339369Y-106083372D01*
X138339369Y-106083372D02*
X138420181Y-106110309D01*
X138420181Y-106110309D02*
X138474056Y-106164184D01*
X138474056Y-106164184D02*
X138527930Y-106271934D01*
X138527930Y-106271934D02*
X138527930Y-106918431D01*
X138527930Y-106918431D02*
X138878117Y-106568245D01*
X139416865Y-106029497D02*
X139093616Y-106352746D01*
X139255240Y-106191121D02*
X138689555Y-105625436D01*
X138689555Y-105625436D02*
X138716492Y-105760123D01*
X138716492Y-105760123D02*
X138716492Y-105867873D01*
X138716492Y-105867873D02*
X138689555Y-105948685D01*
X137207998Y-102070868D02*
X137127185Y-102097805D01*
X137127185Y-102097805D02*
X137046373Y-102178618D01*
X137046373Y-102178618D02*
X136992498Y-102286367D01*
X136992498Y-102286367D02*
X136992498Y-102394117D01*
X136992498Y-102394117D02*
X137019436Y-102474929D01*
X137019436Y-102474929D02*
X137100248Y-102609616D01*
X137100248Y-102609616D02*
X137181060Y-102690428D01*
X137181060Y-102690428D02*
X137315747Y-102771241D01*
X137315747Y-102771241D02*
X137396560Y-102798178D01*
X137396560Y-102798178D02*
X137504309Y-102798178D01*
X137504309Y-102798178D02*
X137612059Y-102744303D01*
X137612059Y-102744303D02*
X137665934Y-102690428D01*
X137665934Y-102690428D02*
X137719808Y-102582679D01*
X137719808Y-102582679D02*
X137719808Y-102528804D01*
X137719808Y-102528804D02*
X137531247Y-102340242D01*
X137531247Y-102340242D02*
X137423497Y-102447992D01*
X138016120Y-102340242D02*
X137450434Y-101774557D01*
X137450434Y-101774557D02*
X137665934Y-101559057D01*
X137665934Y-101559057D02*
X137746746Y-101532120D01*
X137746746Y-101532120D02*
X137800621Y-101532120D01*
X137800621Y-101532120D02*
X137881433Y-101559057D01*
X137881433Y-101559057D02*
X137962245Y-101639870D01*
X137962245Y-101639870D02*
X137989182Y-101720682D01*
X137989182Y-101720682D02*
X137989182Y-101774557D01*
X137989182Y-101774557D02*
X137962245Y-101855369D01*
X137962245Y-101855369D02*
X137746746Y-102070868D01*
X138043057Y-101289683D02*
X138043057Y-101235809D01*
X138043057Y-101235809D02*
X138069995Y-101154996D01*
X138069995Y-101154996D02*
X138204682Y-101020309D01*
X138204682Y-101020309D02*
X138285494Y-100993372D01*
X138285494Y-100993372D02*
X138339369Y-100993372D01*
X138339369Y-100993372D02*
X138420181Y-101020309D01*
X138420181Y-101020309D02*
X138474056Y-101074184D01*
X138474056Y-101074184D02*
X138527930Y-101181934D01*
X138527930Y-101181934D02*
X138527930Y-101828431D01*
X138527930Y-101828431D02*
X138878117Y-101478245D01*
X138581805Y-100750935D02*
X138581805Y-100697060D01*
X138581805Y-100697060D02*
X138608743Y-100616248D01*
X138608743Y-100616248D02*
X138743430Y-100481561D01*
X138743430Y-100481561D02*
X138824242Y-100454624D01*
X138824242Y-100454624D02*
X138878117Y-100454624D01*
X138878117Y-100454624D02*
X138958929Y-100481561D01*
X138958929Y-100481561D02*
X139012804Y-100535436D01*
X139012804Y-100535436D02*
X139066679Y-100643186D01*
X139066679Y-100643186D02*
X139066679Y-101289683D01*
X139066679Y-101289683D02*
X139416865Y-100939497D01*
X111596435Y-104368431D02*
X111515623Y-104395368D01*
X111515623Y-104395368D02*
X111434811Y-104476180D01*
X111434811Y-104476180D02*
X111380936Y-104583930D01*
X111380936Y-104583930D02*
X111380936Y-104691680D01*
X111380936Y-104691680D02*
X111407873Y-104772492D01*
X111407873Y-104772492D02*
X111488685Y-104907179D01*
X111488685Y-104907179D02*
X111569498Y-104987991D01*
X111569498Y-104987991D02*
X111704185Y-105068803D01*
X111704185Y-105068803D02*
X111784997Y-105095741D01*
X111784997Y-105095741D02*
X111892746Y-105095741D01*
X111892746Y-105095741D02*
X112000496Y-105041866D01*
X112000496Y-105041866D02*
X112054371Y-104987991D01*
X112054371Y-104987991D02*
X112108246Y-104880241D01*
X112108246Y-104880241D02*
X112108246Y-104826367D01*
X112108246Y-104826367D02*
X111919684Y-104637805D01*
X111919684Y-104637805D02*
X111811934Y-104745554D01*
X112404557Y-104637805D02*
X111838872Y-104072119D01*
X111838872Y-104072119D02*
X112727806Y-104314556D01*
X112727806Y-104314556D02*
X112162120Y-103748871D01*
X112997180Y-104045182D02*
X112431494Y-103479497D01*
X112431494Y-103479497D02*
X112566181Y-103344810D01*
X112566181Y-103344810D02*
X112673931Y-103290935D01*
X112673931Y-103290935D02*
X112781680Y-103290935D01*
X112781680Y-103290935D02*
X112862493Y-103317872D01*
X112862493Y-103317872D02*
X112997180Y-103398685D01*
X112997180Y-103398685D02*
X113077992Y-103479497D01*
X113077992Y-103479497D02*
X113158804Y-103614184D01*
X113158804Y-103614184D02*
X113185741Y-103694996D01*
X113185741Y-103694996D02*
X113185741Y-103802746D01*
X113185741Y-103802746D02*
X113131867Y-103910495D01*
X113131867Y-103910495D02*
X112997180Y-104045182D01*
X111053998Y-119850868D02*
X110973185Y-119877805D01*
X110973185Y-119877805D02*
X110892373Y-119958618D01*
X110892373Y-119958618D02*
X110838498Y-120066367D01*
X110838498Y-120066367D02*
X110838498Y-120174117D01*
X110838498Y-120174117D02*
X110865436Y-120254929D01*
X110865436Y-120254929D02*
X110946248Y-120389616D01*
X110946248Y-120389616D02*
X111027060Y-120470428D01*
X111027060Y-120470428D02*
X111161747Y-120551241D01*
X111161747Y-120551241D02*
X111242560Y-120578178D01*
X111242560Y-120578178D02*
X111350309Y-120578178D01*
X111350309Y-120578178D02*
X111458059Y-120524303D01*
X111458059Y-120524303D02*
X111511934Y-120470428D01*
X111511934Y-120470428D02*
X111565808Y-120362679D01*
X111565808Y-120362679D02*
X111565808Y-120308804D01*
X111565808Y-120308804D02*
X111377247Y-120120242D01*
X111377247Y-120120242D02*
X111269497Y-120227992D01*
X111862120Y-120120242D02*
X111296434Y-119554557D01*
X111296434Y-119554557D02*
X111511934Y-119339057D01*
X111511934Y-119339057D02*
X111592746Y-119312120D01*
X111592746Y-119312120D02*
X111646621Y-119312120D01*
X111646621Y-119312120D02*
X111727433Y-119339057D01*
X111727433Y-119339057D02*
X111808245Y-119419870D01*
X111808245Y-119419870D02*
X111835182Y-119500682D01*
X111835182Y-119500682D02*
X111835182Y-119554557D01*
X111835182Y-119554557D02*
X111808245Y-119635369D01*
X111808245Y-119635369D02*
X111592746Y-119850868D01*
X112724117Y-119258245D02*
X112400868Y-119581494D01*
X112562492Y-119419870D02*
X111996807Y-118854184D01*
X111996807Y-118854184D02*
X112023744Y-118988871D01*
X112023744Y-118988871D02*
X112023744Y-119096621D01*
X112023744Y-119096621D02*
X111996807Y-119177433D01*
X112831866Y-118396248D02*
X113208990Y-118773372D01*
X112481680Y-118315436D02*
X112751054Y-118854184D01*
X112751054Y-118854184D02*
X113101240Y-118503998D01*
X137030749Y-76940242D02*
X137784996Y-77317366D01*
X137784996Y-77317366D02*
X137407873Y-76563118D01*
X138108245Y-76940242D02*
X138215995Y-76886367D01*
X138215995Y-76886367D02*
X138350682Y-76751680D01*
X138350682Y-76751680D02*
X138377619Y-76670868D01*
X138377619Y-76670868D02*
X138377619Y-76616993D01*
X138377619Y-76616993D02*
X138350682Y-76536181D01*
X138350682Y-76536181D02*
X138296807Y-76482306D01*
X138296807Y-76482306D02*
X138215995Y-76455369D01*
X138215995Y-76455369D02*
X138162120Y-76455369D01*
X138162120Y-76455369D02*
X138081308Y-76482306D01*
X138081308Y-76482306D02*
X137946621Y-76563118D01*
X137946621Y-76563118D02*
X137865808Y-76590056D01*
X137865808Y-76590056D02*
X137811934Y-76590056D01*
X137811934Y-76590056D02*
X137731121Y-76563118D01*
X137731121Y-76563118D02*
X137677247Y-76509244D01*
X137677247Y-76509244D02*
X137650309Y-76428431D01*
X137650309Y-76428431D02*
X137650309Y-76374557D01*
X137650309Y-76374557D02*
X137677247Y-76293744D01*
X137677247Y-76293744D02*
X137811934Y-76159057D01*
X137811934Y-76159057D02*
X137919683Y-76105183D01*
X138539244Y-76024370D02*
X138808618Y-76293744D01*
X138054370Y-75916621D02*
X138539244Y-76024370D01*
X138539244Y-76024370D02*
X138431494Y-75539497D01*
X139131866Y-75916621D02*
X139239616Y-75862746D01*
X139239616Y-75862746D02*
X139374303Y-75728059D01*
X139374303Y-75728059D02*
X139401240Y-75647247D01*
X139401240Y-75647247D02*
X139401240Y-75593372D01*
X139401240Y-75593372D02*
X139374303Y-75512560D01*
X139374303Y-75512560D02*
X139320428Y-75458685D01*
X139320428Y-75458685D02*
X139239616Y-75431748D01*
X139239616Y-75431748D02*
X139185741Y-75431748D01*
X139185741Y-75431748D02*
X139104929Y-75458685D01*
X139104929Y-75458685D02*
X138970242Y-75539497D01*
X138970242Y-75539497D02*
X138889430Y-75566435D01*
X138889430Y-75566435D02*
X138835555Y-75566435D01*
X138835555Y-75566435D02*
X138754743Y-75539497D01*
X138754743Y-75539497D02*
X138700868Y-75485622D01*
X138700868Y-75485622D02*
X138673930Y-75404810D01*
X138673930Y-75404810D02*
X138673930Y-75350935D01*
X138673930Y-75350935D02*
X138700868Y-75270123D01*
X138700868Y-75270123D02*
X138835555Y-75135436D01*
X138835555Y-75135436D02*
X138943304Y-75081561D01*
X110953998Y-112230868D02*
X110873185Y-112257805D01*
X110873185Y-112257805D02*
X110792373Y-112338618D01*
X110792373Y-112338618D02*
X110738498Y-112446367D01*
X110738498Y-112446367D02*
X110738498Y-112554117D01*
X110738498Y-112554117D02*
X110765436Y-112634929D01*
X110765436Y-112634929D02*
X110846248Y-112769616D01*
X110846248Y-112769616D02*
X110927060Y-112850428D01*
X110927060Y-112850428D02*
X111061747Y-112931241D01*
X111061747Y-112931241D02*
X111142560Y-112958178D01*
X111142560Y-112958178D02*
X111250309Y-112958178D01*
X111250309Y-112958178D02*
X111358059Y-112904303D01*
X111358059Y-112904303D02*
X111411934Y-112850428D01*
X111411934Y-112850428D02*
X111465808Y-112742679D01*
X111465808Y-112742679D02*
X111465808Y-112688804D01*
X111465808Y-112688804D02*
X111277247Y-112500242D01*
X111277247Y-112500242D02*
X111169497Y-112607992D01*
X111762120Y-112500242D02*
X111196434Y-111934557D01*
X111196434Y-111934557D02*
X111411934Y-111719057D01*
X111411934Y-111719057D02*
X111492746Y-111692120D01*
X111492746Y-111692120D02*
X111546621Y-111692120D01*
X111546621Y-111692120D02*
X111627433Y-111719057D01*
X111627433Y-111719057D02*
X111708245Y-111799870D01*
X111708245Y-111799870D02*
X111735182Y-111880682D01*
X111735182Y-111880682D02*
X111735182Y-111934557D01*
X111735182Y-111934557D02*
X111708245Y-112015369D01*
X111708245Y-112015369D02*
X111492746Y-112230868D01*
X112624117Y-111638245D02*
X112300868Y-111961494D01*
X112462492Y-111799870D02*
X111896807Y-111234184D01*
X111896807Y-111234184D02*
X111923744Y-111368871D01*
X111923744Y-111368871D02*
X111923744Y-111476621D01*
X111923744Y-111476621D02*
X111896807Y-111557433D01*
X112327805Y-110910935D02*
X112327805Y-110857060D01*
X112327805Y-110857060D02*
X112354743Y-110776248D01*
X112354743Y-110776248D02*
X112489430Y-110641561D01*
X112489430Y-110641561D02*
X112570242Y-110614624D01*
X112570242Y-110614624D02*
X112624117Y-110614624D01*
X112624117Y-110614624D02*
X112704929Y-110641561D01*
X112704929Y-110641561D02*
X112758804Y-110695436D01*
X112758804Y-110695436D02*
X112812679Y-110803186D01*
X112812679Y-110803186D02*
X112812679Y-111449683D01*
X112812679Y-111449683D02*
X113162865Y-111099497D01*
X111523372Y-76391494D02*
X111442560Y-76418431D01*
X111442560Y-76418431D02*
X111361748Y-76499243D01*
X111361748Y-76499243D02*
X111307873Y-76606993D01*
X111307873Y-76606993D02*
X111307873Y-76714742D01*
X111307873Y-76714742D02*
X111334810Y-76795555D01*
X111334810Y-76795555D02*
X111415623Y-76930242D01*
X111415623Y-76930242D02*
X111496435Y-77011054D01*
X111496435Y-77011054D02*
X111631122Y-77091866D01*
X111631122Y-77091866D02*
X111711934Y-77118803D01*
X111711934Y-77118803D02*
X111819684Y-77118803D01*
X111819684Y-77118803D02*
X111927433Y-77064929D01*
X111927433Y-77064929D02*
X111981308Y-77011054D01*
X111981308Y-77011054D02*
X112035183Y-76903304D01*
X112035183Y-76903304D02*
X112035183Y-76849429D01*
X112035183Y-76849429D02*
X111846621Y-76660868D01*
X111846621Y-76660868D02*
X111738871Y-76768617D01*
X112331494Y-76660868D02*
X111765809Y-76095182D01*
X111765809Y-76095182D02*
X111981308Y-75879683D01*
X111981308Y-75879683D02*
X112062120Y-75852746D01*
X112062120Y-75852746D02*
X112115995Y-75852746D01*
X112115995Y-75852746D02*
X112196807Y-75879683D01*
X112196807Y-75879683D02*
X112277619Y-75960495D01*
X112277619Y-75960495D02*
X112304557Y-76041307D01*
X112304557Y-76041307D02*
X112304557Y-76095182D01*
X112304557Y-76095182D02*
X112277619Y-76175994D01*
X112277619Y-76175994D02*
X112062120Y-76391494D01*
X113193491Y-75798871D02*
X112870242Y-76122120D01*
X113031867Y-75960495D02*
X112466181Y-75394810D01*
X112466181Y-75394810D02*
X112493119Y-75529497D01*
X112493119Y-75529497D02*
X112493119Y-75637246D01*
X112493119Y-75637246D02*
X112466181Y-75718059D01*
X111099998Y-107150868D02*
X111019185Y-107177805D01*
X111019185Y-107177805D02*
X110938373Y-107258618D01*
X110938373Y-107258618D02*
X110884498Y-107366367D01*
X110884498Y-107366367D02*
X110884498Y-107474117D01*
X110884498Y-107474117D02*
X110911436Y-107554929D01*
X110911436Y-107554929D02*
X110992248Y-107689616D01*
X110992248Y-107689616D02*
X111073060Y-107770428D01*
X111073060Y-107770428D02*
X111207747Y-107851241D01*
X111207747Y-107851241D02*
X111288560Y-107878178D01*
X111288560Y-107878178D02*
X111396309Y-107878178D01*
X111396309Y-107878178D02*
X111504059Y-107824303D01*
X111504059Y-107824303D02*
X111557934Y-107770428D01*
X111557934Y-107770428D02*
X111611808Y-107662679D01*
X111611808Y-107662679D02*
X111611808Y-107608804D01*
X111611808Y-107608804D02*
X111423247Y-107420242D01*
X111423247Y-107420242D02*
X111315497Y-107527992D01*
X111908120Y-107420242D02*
X111342434Y-106854557D01*
X111342434Y-106854557D02*
X111557934Y-106639057D01*
X111557934Y-106639057D02*
X111638746Y-106612120D01*
X111638746Y-106612120D02*
X111692621Y-106612120D01*
X111692621Y-106612120D02*
X111773433Y-106639057D01*
X111773433Y-106639057D02*
X111854245Y-106719870D01*
X111854245Y-106719870D02*
X111881182Y-106800682D01*
X111881182Y-106800682D02*
X111881182Y-106854557D01*
X111881182Y-106854557D02*
X111854245Y-106935369D01*
X111854245Y-106935369D02*
X111638746Y-107150868D01*
X112770117Y-106558245D02*
X112446868Y-106881494D01*
X112608492Y-106719870D02*
X112042807Y-106154184D01*
X112042807Y-106154184D02*
X112069744Y-106288871D01*
X112069744Y-106288871D02*
X112069744Y-106396621D01*
X112069744Y-106396621D02*
X112042807Y-106477433D01*
X112554618Y-105642373D02*
X112608492Y-105588499D01*
X112608492Y-105588499D02*
X112689305Y-105561561D01*
X112689305Y-105561561D02*
X112743179Y-105561561D01*
X112743179Y-105561561D02*
X112823992Y-105588499D01*
X112823992Y-105588499D02*
X112958679Y-105669311D01*
X112958679Y-105669311D02*
X113093366Y-105803998D01*
X113093366Y-105803998D02*
X113174178Y-105938685D01*
X113174178Y-105938685D02*
X113201115Y-106019497D01*
X113201115Y-106019497D02*
X113201115Y-106073372D01*
X113201115Y-106073372D02*
X113174178Y-106154184D01*
X113174178Y-106154184D02*
X113120303Y-106208059D01*
X113120303Y-106208059D02*
X113039491Y-106234996D01*
X113039491Y-106234996D02*
X112985616Y-106234996D01*
X112985616Y-106234996D02*
X112904804Y-106208059D01*
X112904804Y-106208059D02*
X112770117Y-106127247D01*
X112770117Y-106127247D02*
X112635430Y-105992560D01*
X112635430Y-105992560D02*
X112554618Y-105857873D01*
X112554618Y-105857873D02*
X112527680Y-105777060D01*
X112527680Y-105777060D02*
X112527680Y-105723186D01*
X112527680Y-105723186D02*
X112554618Y-105642373D01*
X137948651Y-99813710D02*
X137490716Y-99732898D01*
X137625403Y-100136959D02*
X137059717Y-99571274D01*
X137059717Y-99571274D02*
X137275216Y-99355775D01*
X137275216Y-99355775D02*
X137356029Y-99328837D01*
X137356029Y-99328837D02*
X137409903Y-99328837D01*
X137409903Y-99328837D02*
X137490716Y-99355775D01*
X137490716Y-99355775D02*
X137571528Y-99436587D01*
X137571528Y-99436587D02*
X137598465Y-99517399D01*
X137598465Y-99517399D02*
X137598465Y-99571274D01*
X137598465Y-99571274D02*
X137571528Y-99652086D01*
X137571528Y-99652086D02*
X137356029Y-99867585D01*
X137625403Y-99005588D02*
X138083338Y-99463524D01*
X138083338Y-99463524D02*
X138164151Y-99490462D01*
X138164151Y-99490462D02*
X138218025Y-99490462D01*
X138218025Y-99490462D02*
X138298838Y-99463524D01*
X138298838Y-99463524D02*
X138406587Y-99355775D01*
X138406587Y-99355775D02*
X138433525Y-99274962D01*
X138433525Y-99274962D02*
X138433525Y-99221088D01*
X138433525Y-99221088D02*
X138406587Y-99140275D01*
X138406587Y-99140275D02*
X137948651Y-98682340D01*
X138783711Y-98978651D02*
X138218025Y-98412966D01*
X138218025Y-98412966D02*
X139106959Y-98655402D01*
X139106959Y-98655402D02*
X138541274Y-98089717D01*
X137207998Y-94460868D02*
X137127185Y-94487805D01*
X137127185Y-94487805D02*
X137046373Y-94568618D01*
X137046373Y-94568618D02*
X136992498Y-94676367D01*
X136992498Y-94676367D02*
X136992498Y-94784117D01*
X136992498Y-94784117D02*
X137019436Y-94864929D01*
X137019436Y-94864929D02*
X137100248Y-94999616D01*
X137100248Y-94999616D02*
X137181060Y-95080428D01*
X137181060Y-95080428D02*
X137315747Y-95161241D01*
X137315747Y-95161241D02*
X137396560Y-95188178D01*
X137396560Y-95188178D02*
X137504309Y-95188178D01*
X137504309Y-95188178D02*
X137612059Y-95134303D01*
X137612059Y-95134303D02*
X137665934Y-95080428D01*
X137665934Y-95080428D02*
X137719808Y-94972679D01*
X137719808Y-94972679D02*
X137719808Y-94918804D01*
X137719808Y-94918804D02*
X137531247Y-94730242D01*
X137531247Y-94730242D02*
X137423497Y-94837992D01*
X138016120Y-94730242D02*
X137450434Y-94164557D01*
X137450434Y-94164557D02*
X137665934Y-93949057D01*
X137665934Y-93949057D02*
X137746746Y-93922120D01*
X137746746Y-93922120D02*
X137800621Y-93922120D01*
X137800621Y-93922120D02*
X137881433Y-93949057D01*
X137881433Y-93949057D02*
X137962245Y-94029870D01*
X137962245Y-94029870D02*
X137989182Y-94110682D01*
X137989182Y-94110682D02*
X137989182Y-94164557D01*
X137989182Y-94164557D02*
X137962245Y-94245369D01*
X137962245Y-94245369D02*
X137746746Y-94460868D01*
X138043057Y-93679683D02*
X138043057Y-93625809D01*
X138043057Y-93625809D02*
X138069995Y-93544996D01*
X138069995Y-93544996D02*
X138204682Y-93410309D01*
X138204682Y-93410309D02*
X138285494Y-93383372D01*
X138285494Y-93383372D02*
X138339369Y-93383372D01*
X138339369Y-93383372D02*
X138420181Y-93410309D01*
X138420181Y-93410309D02*
X138474056Y-93464184D01*
X138474056Y-93464184D02*
X138527930Y-93571934D01*
X138527930Y-93571934D02*
X138527930Y-94218431D01*
X138527930Y-94218431D02*
X138878117Y-93868245D01*
X138500993Y-93113998D02*
X138878117Y-92736874D01*
X138878117Y-92736874D02*
X139201366Y-93544996D01*
X143054819Y-102666666D02*
X142578628Y-102999999D01*
X143054819Y-103238094D02*
X142054819Y-103238094D01*
X142054819Y-103238094D02*
X142054819Y-102857142D01*
X142054819Y-102857142D02*
X142102438Y-102761904D01*
X142102438Y-102761904D02*
X142150057Y-102714285D01*
X142150057Y-102714285D02*
X142245295Y-102666666D01*
X142245295Y-102666666D02*
X142388152Y-102666666D01*
X142388152Y-102666666D02*
X142483390Y-102714285D01*
X142483390Y-102714285D02*
X142531009Y-102761904D01*
X142531009Y-102761904D02*
X142578628Y-102857142D01*
X142578628Y-102857142D02*
X142578628Y-103238094D01*
X142054819Y-102333332D02*
X142054819Y-101666666D01*
X142054819Y-101666666D02*
X143054819Y-102095237D01*
X152833333Y-89054819D02*
X152500000Y-88578628D01*
X152261905Y-89054819D02*
X152261905Y-88054819D01*
X152261905Y-88054819D02*
X152642857Y-88054819D01*
X152642857Y-88054819D02*
X152738095Y-88102438D01*
X152738095Y-88102438D02*
X152785714Y-88150057D01*
X152785714Y-88150057D02*
X152833333Y-88245295D01*
X152833333Y-88245295D02*
X152833333Y-88388152D01*
X152833333Y-88388152D02*
X152785714Y-88483390D01*
X152785714Y-88483390D02*
X152738095Y-88531009D01*
X152738095Y-88531009D02*
X152642857Y-88578628D01*
X152642857Y-88578628D02*
X152261905Y-88578628D01*
X153738095Y-88054819D02*
X153261905Y-88054819D01*
X153261905Y-88054819D02*
X153214286Y-88531009D01*
X153214286Y-88531009D02*
X153261905Y-88483390D01*
X153261905Y-88483390D02*
X153357143Y-88435771D01*
X153357143Y-88435771D02*
X153595238Y-88435771D01*
X153595238Y-88435771D02*
X153690476Y-88483390D01*
X153690476Y-88483390D02*
X153738095Y-88531009D01*
X153738095Y-88531009D02*
X153785714Y-88626247D01*
X153785714Y-88626247D02*
X153785714Y-88864342D01*
X153785714Y-88864342D02*
X153738095Y-88959580D01*
X153738095Y-88959580D02*
X153690476Y-89007200D01*
X153690476Y-89007200D02*
X153595238Y-89054819D01*
X153595238Y-89054819D02*
X153357143Y-89054819D01*
X153357143Y-89054819D02*
X153261905Y-89007200D01*
X153261905Y-89007200D02*
X153214286Y-88959580D01*
X142350057Y-94095238D02*
X142302438Y-94190476D01*
X142302438Y-94190476D02*
X142207200Y-94285714D01*
X142207200Y-94285714D02*
X142064342Y-94428571D01*
X142064342Y-94428571D02*
X142016723Y-94523809D01*
X142016723Y-94523809D02*
X142016723Y-94619047D01*
X142254819Y-94571428D02*
X142207200Y-94666666D01*
X142207200Y-94666666D02*
X142111961Y-94761904D01*
X142111961Y-94761904D02*
X141921485Y-94809523D01*
X141921485Y-94809523D02*
X141588152Y-94809523D01*
X141588152Y-94809523D02*
X141397676Y-94761904D01*
X141397676Y-94761904D02*
X141302438Y-94666666D01*
X141302438Y-94666666D02*
X141254819Y-94571428D01*
X141254819Y-94571428D02*
X141254819Y-94380952D01*
X141254819Y-94380952D02*
X141302438Y-94285714D01*
X141302438Y-94285714D02*
X141397676Y-94190476D01*
X141397676Y-94190476D02*
X141588152Y-94142857D01*
X141588152Y-94142857D02*
X141921485Y-94142857D01*
X141921485Y-94142857D02*
X142111961Y-94190476D01*
X142111961Y-94190476D02*
X142207200Y-94285714D01*
X142207200Y-94285714D02*
X142254819Y-94380952D01*
X142254819Y-94380952D02*
X142254819Y-94571428D01*
X141350057Y-93761904D02*
X141302438Y-93714285D01*
X141302438Y-93714285D02*
X141254819Y-93619047D01*
X141254819Y-93619047D02*
X141254819Y-93380952D01*
X141254819Y-93380952D02*
X141302438Y-93285714D01*
X141302438Y-93285714D02*
X141350057Y-93238095D01*
X141350057Y-93238095D02*
X141445295Y-93190476D01*
X141445295Y-93190476D02*
X141540533Y-93190476D01*
X141540533Y-93190476D02*
X141683390Y-93238095D01*
X141683390Y-93238095D02*
X142254819Y-93809523D01*
X142254819Y-93809523D02*
X142254819Y-93190476D01*
X152669166Y-71124819D02*
X152669166Y-71839104D01*
X152669166Y-71839104D02*
X152621547Y-71981961D01*
X152621547Y-71981961D02*
X152526309Y-72077200D01*
X152526309Y-72077200D02*
X152383452Y-72124819D01*
X152383452Y-72124819D02*
X152288214Y-72124819D01*
X153669166Y-72124819D02*
X153097738Y-72124819D01*
X153383452Y-72124819D02*
X153383452Y-71124819D01*
X153383452Y-71124819D02*
X153288214Y-71267676D01*
X153288214Y-71267676D02*
X153192976Y-71362914D01*
X153192976Y-71362914D02*
X153097738Y-71410533D01*
D11*
%TO.C,D2*%
X158565000Y-99500000D02*
G75*
G02*
X158465000Y-99500000I-50000J0D01*
G01*
X158465000Y-99500000D02*
G75*
G02*
X158565000Y-99500000I50000J0D01*
G01*
D12*
%TO.C,U2*%
X114610000Y-72370000D02*
X114610000Y-72670000D01*
X114610000Y-72370000D02*
X135610000Y-72370000D01*
X114610000Y-74770000D02*
X114610000Y-75170000D01*
X114610000Y-75037000D02*
X117617000Y-75037000D01*
X114610000Y-77370000D02*
X114610000Y-77770000D01*
X114610000Y-79870000D02*
X114610000Y-80270000D01*
X114610000Y-82470000D02*
X114610000Y-82870000D01*
X114610000Y-84970000D02*
X114610000Y-85370000D01*
X114610000Y-87470000D02*
X114610000Y-87870000D01*
X114610000Y-90070000D02*
X114610000Y-90470000D01*
X114610000Y-92570000D02*
X114610000Y-92970000D01*
X114610000Y-95170000D02*
X114610000Y-95570000D01*
X114610000Y-97670000D02*
X114610000Y-98070000D01*
X114610000Y-100170000D02*
X114610000Y-100570000D01*
X114610000Y-102770000D02*
X114610000Y-103170000D01*
X114610000Y-105270000D02*
X114610000Y-105670000D01*
X114610000Y-107870000D02*
X114610000Y-108270000D01*
X114610000Y-110370000D02*
X114610000Y-110770000D01*
X114610000Y-112970000D02*
X114610000Y-113370000D01*
X114610000Y-115470000D02*
X114610000Y-115870000D01*
X114610000Y-117970000D02*
X114610000Y-118370000D01*
X114610000Y-120570000D02*
X114610000Y-120970000D01*
X117617000Y-75037000D02*
X117617000Y-72370000D01*
X121410000Y-123370000D02*
X114610000Y-123370000D01*
X123610000Y-123370000D02*
X124010000Y-123370000D01*
X126210000Y-123370000D02*
X126610000Y-123370000D01*
X135610000Y-72370000D02*
X135610000Y-72670000D01*
X135610000Y-74770000D02*
X135610000Y-75170000D01*
X135610000Y-77370000D02*
X135610000Y-77770000D01*
X135610000Y-79870000D02*
X135610000Y-80270000D01*
X135610000Y-82470000D02*
X135610000Y-82870000D01*
X135610000Y-84970000D02*
X135610000Y-85370000D01*
X135610000Y-87470000D02*
X135610000Y-87870000D01*
X135610000Y-90070000D02*
X135610000Y-90470000D01*
X135610000Y-92570000D02*
X135610000Y-92970000D01*
X135610000Y-95170000D02*
X135610000Y-95570000D01*
X135610000Y-97670000D02*
X135610000Y-98070000D01*
X135610000Y-100170000D02*
X135610000Y-100570000D01*
X135610000Y-102770000D02*
X135610000Y-103170000D01*
X135610000Y-105270000D02*
X135610000Y-105670000D01*
X135610000Y-107870000D02*
X135610000Y-108270000D01*
X135610000Y-110370000D02*
X135610000Y-110770000D01*
X135610000Y-112970000D02*
X135610000Y-113370000D01*
X135610000Y-115470000D02*
X135610000Y-115870000D01*
X135610000Y-117970000D02*
X135610000Y-118370000D01*
X135610000Y-120570000D02*
X135610000Y-120970000D01*
X135610000Y-123370000D02*
X128810000Y-123370000D01*
%TO.C,R7*%
X143400000Y-103900000D02*
X143400000Y-101100000D01*
X147600000Y-103900000D02*
X147600000Y-101100000D01*
X147599999Y-103900000D02*
G75*
G02*
X143390759Y-103886036I-2099999J1400000D01*
G01*
X143400001Y-101100000D02*
G75*
G02*
X147609241Y-101113964I2099999J-1400000D01*
G01*
%TO.C,R5*%
X151600000Y-89400000D02*
X154400000Y-89400000D01*
X151600000Y-93600000D02*
X154400000Y-93600000D01*
X151600000Y-93599999D02*
G75*
G02*
X151613964Y-89390759I1400000J2099999D01*
G01*
X154400000Y-89400001D02*
G75*
G02*
X154386036Y-93609241I-1400000J-2099999D01*
G01*
%TO.C,Q2*%
X147210000Y-95800000D02*
X147210000Y-92200000D01*
X147198478Y-95838478D02*
G75*
G02*
X142760000Y-94000000I-1838478J1838478D01*
G01*
X142760000Y-94000000D02*
G75*
G02*
X147198478Y-92161522I2600000J0D01*
G01*
%TO.C,J1*%
X148592500Y-74550000D02*
X148592500Y-76750000D01*
X148932500Y-74840000D02*
X148932500Y-76750000D01*
X148932500Y-74840000D02*
X157062500Y-74840000D01*
X148932500Y-76750000D02*
X148932500Y-81580000D01*
X149892500Y-74550000D02*
X148592500Y-74550000D01*
X150202500Y-73450000D02*
X155792500Y-73450000D01*
X150202500Y-73700000D02*
X155792500Y-73700000D01*
X150202500Y-74590000D02*
X155792500Y-74590000D01*
X150202500Y-74840000D02*
X150202500Y-73450000D01*
X152612500Y-81320000D02*
X153382500Y-81320000D01*
X152612500Y-81580000D02*
X148932500Y-81580000D01*
X152612500Y-81580000D02*
X152612500Y-81320000D01*
X153382500Y-81320000D02*
X153382500Y-81580000D01*
X153382500Y-81580000D02*
X157062500Y-81580000D01*
X155792500Y-74840000D02*
X155792500Y-73450000D01*
X157062500Y-74840000D02*
X157062500Y-76750000D01*
X157062500Y-81580000D02*
X157062500Y-76750000D01*
%TD*%
M02*
